<svg xmlns="http://www.w3.org/2000/svg" viewBox="0 0 264.02 268.25"><defs><style>.cls-1{fill:#192a46;}.cls-2{fill:#92cdaf;}</style></defs><title>bg-01</title><g id="Layer_2" data-name="Layer 2"><g id="Your_Design" data-name="Your Design"><rect class="cls-1" width="263.34" height="268.25"/><path class="cls-2" d="M.71,0,.58,2.8c0,.16,0,.31,0,.47v3.3a9.89,9.89,0,0,0,.94-3.72L1.61,0Z"/><path class="cls-2" d="M7.69,0A10,10,0,0,0,6.23,4.68l-.17,3.6A9.63,9.63,0,0,1,.53,16.36v1A10.55,10.55,0,0,0,7,8.32l.17-3.6A9.2,9.2,0,0,1,8.74,0Z"/><path class="cls-2" d="M26.53,0A8.83,8.83,0,0,1,25.1.2l-3.6.17a10.52,10.52,0,0,0-9.79,9.79l-.17,3.6a9.61,9.61,0,0,1-8.94,8.95l-2.06.1v.89l2.1-.1a10.52,10.52,0,0,0,9.79-9.79l.17-3.6a9.61,9.61,0,0,1,8.94-8.95l3.6-.17a9.91,9.91,0,0,0,4-1.09Z"/><path class="cls-2" d="M38.73,0a9.63,9.63,0,0,1-8.15,5.68L27,5.85a10.53,10.53,0,0,0-9.79,9.8L17,19.24a9.61,9.61,0,0,1-8.94,8.95l-3.6.17A9.89,9.89,0,0,0,.53,29.41v1a9.1,9.1,0,0,1,4-1.16l3.6-.17a10.53,10.53,0,0,0,9.79-9.8l.17-3.59A9.61,9.61,0,0,1,27,6.74l3.6-.17A10.55,10.55,0,0,0,39.69,0Z"/><path class="cls-2" d="M45.11,0,45,2.21a9.61,9.61,0,0,1-8.94,8.95l-3.6.17a10.52,10.52,0,0,0-9.79,9.79l-.17,3.59a9.61,9.61,0,0,1-8.94,8.95l-3.6.17A10.56,10.56,0,0,0,.53,41.45v7.94a9.7,9.7,0,0,0,.35-2.12l.17-3.6A9.61,9.61,0,0,1,10,34.73l3.6-.17a10.52,10.52,0,0,0,9.79-9.79l.17-3.6a9.61,9.61,0,0,1,8.94-8.95l3.6-.17A10.52,10.52,0,0,0,45.9,2.25L46,0Z"/><path class="cls-2" d="M51.79,0a9.91,9.91,0,0,0-1.13,4.1l-.17,3.59a9.61,9.61,0,0,1-8.94,8.95l-3.6.17a10.53,10.53,0,0,0-9.79,9.8L28,30.2A9.61,9.61,0,0,1,19,39.15l-3.6.17a10.53,10.53,0,0,0-9.79,9.8l-.17,3.59A9.6,9.6,0,0,1,.53,60.48v1a10.53,10.53,0,0,0,5.83-8.73l.17-3.59a9.61,9.61,0,0,1,8.94-8.95l3.6-.17a10.53,10.53,0,0,0,9.79-9.79l.17-3.6A9.61,9.61,0,0,1,38,17.7l3.6-.17a10.52,10.52,0,0,0,9.79-9.79l.17-3.59A9.1,9.1,0,0,1,52.8,0Z"/><path class="cls-2" d="M64.37,0a10.56,10.56,0,0,0-8.23,9.58L56,13.17A9.61,9.61,0,0,1,47,22.12l-3.59.17a10.52,10.52,0,0,0-9.8,9.79l-.17,3.59a9.61,9.61,0,0,1-8.94,8.95l-3.6.17a10.52,10.52,0,0,0-9.79,9.79l-.17,3.6A9.61,9.61,0,0,1,2,67.14l-1.47.07v.89L2,68a10.52,10.52,0,0,0,9.79-9.79l.17-3.6A9.61,9.61,0,0,1,21,45.69l3.6-.17a10.52,10.52,0,0,0,9.79-9.79l.17-3.59a9.61,9.61,0,0,1,8.95-8.95L47.07,23a10.52,10.52,0,0,0,9.8-9.79L57,9.62A9.61,9.61,0,0,1,66,.68L69.57.5A9.74,9.74,0,0,0,72.2,0Z"/><path class="cls-2" d="M82.86,0A9.6,9.6,0,0,1,75,5.09l-3.59.17a10.52,10.52,0,0,0-9.79,9.79l-.17,3.59A9.61,9.61,0,0,1,52.5,27.6l-3.6.17a10.53,10.53,0,0,0-9.79,9.8l-.17,3.59A9.61,9.61,0,0,1,30,50.11l-3.6.17a10.53,10.53,0,0,0-9.79,9.8l-.17,3.59a9.61,9.61,0,0,1-8.94,8.95l-3.59.17a9.81,9.81,0,0,0-3.36.78v1a9,9,0,0,1,3.4-.86l3.59-.17a10.52,10.52,0,0,0,9.79-9.8l.17-3.59a9.61,9.61,0,0,1,8.94-8.95L30,51a10.52,10.52,0,0,0,9.79-9.79l.17-3.6a9.61,9.61,0,0,1,8.94-8.95l3.6-.17a10.52,10.52,0,0,0,9.79-9.79l.17-3.59a9.61,9.61,0,0,1,8.94-8.94L75.05,6a10.54,10.54,0,0,0,8.81-6Z"/><path class="cls-2" d="M89.51,0l-.08,1.63a9.61,9.61,0,0,1-8.94,8.95l-3.59.17a10.52,10.52,0,0,0-9.79,9.79l-.17,3.59A9.61,9.61,0,0,1,58,33.08l-3.59.17A10.52,10.52,0,0,0,44.59,43l-.17,3.59a9.61,9.61,0,0,1-8.94,8.95l-3.6.17a10.52,10.52,0,0,0-9.79,9.79l-.17,3.59A9.61,9.61,0,0,1,13,78.09l-3.59.17a10.54,10.54,0,0,0-8.84,6v3.15a9.62,9.62,0,0,1,8.88-8.29L13,79a10.52,10.52,0,0,0,9.79-9.79L23,65.6a9.61,9.61,0,0,1,8.94-8.95l3.6-.17a10.53,10.53,0,0,0,9.79-9.8l.17-3.59a9.61,9.61,0,0,1,8.95-8.95L58,34a10.52,10.52,0,0,0,9.8-9.79L68,20.58a9.61,9.61,0,0,1,8.94-8.95l3.59-.17a10.52,10.52,0,0,0,9.79-9.79L90.41,0Z"/><path class="cls-2" d="M95.93,0a9.85,9.85,0,0,0-.85,3.51l-.17,3.59A9.61,9.61,0,0,1,86,16.05l-3.59.17A10.52,10.52,0,0,0,72.58,26l-.17,3.59a9.61,9.61,0,0,1-8.94,8.95l-3.6.17a10.52,10.52,0,0,0-9.79,9.79l-.17,3.6A9.61,9.61,0,0,1,41,61.07l-3.6.17A10.52,10.52,0,0,0,27.56,71l-.17,3.59a9.61,9.61,0,0,1-8.95,8.95l-3.59.17a10.52,10.52,0,0,0-9.79,9.79l-.17,3.59a9.56,9.56,0,0,1-4.35,7.41v1.05a10.51,10.51,0,0,0,5.24-8.42l.17-3.59a9.61,9.61,0,0,1,8.94-8.95l3.59-.17a10.52,10.52,0,0,0,9.8-9.79l.17-3.59a9.61,9.61,0,0,1,8.94-8.95L41,62a10.52,10.52,0,0,0,9.79-9.79L51,48.57a9.61,9.61,0,0,1,8.94-8.95l3.6-.17a10.52,10.52,0,0,0,9.79-9.8l.17-3.59a9.61,9.61,0,0,1,8.94-8.95L86,16.94a10.52,10.52,0,0,0,9.79-9.79L96,3.55A9,9,0,0,1,96.92,0Z"/><path class="cls-2" d="M107,0a10.55,10.55,0,0,0-6.39,9l-.17,3.59a9.61,9.61,0,0,1-8.94,8.95l-3.59.17a10.52,10.52,0,0,0-9.79,9.79l-.17,3.59A9.61,9.61,0,0,1,68.94,44l-3.59.17A10.52,10.52,0,0,0,55.55,54l-.17,3.6a9.61,9.61,0,0,1-8.94,8.95l-3.6.17A10.53,10.53,0,0,0,33,76.51l-.17,3.59a9.61,9.61,0,0,1-8.94,8.95l-3.59.17A10.52,10.52,0,0,0,10.53,99l-.17,3.59a9.61,9.61,0,0,1-8.94,8.95l-.88,0v.89l.93,0a10.52,10.52,0,0,0,9.79-9.79l.17-3.59a9.61,9.61,0,0,1,8.95-8.95L24,89.95a10.52,10.52,0,0,0,9.79-9.79l.17-3.59a9.61,9.61,0,0,1,8.94-8.95l3.6-.17a10.53,10.53,0,0,0,9.79-9.8l.17-3.6a9.61,9.61,0,0,1,8.95-8.95L69,44.93a10.52,10.52,0,0,0,9.79-9.79L79,31.54A9.61,9.61,0,0,1,87.9,22.6l3.59-.17a10.52,10.52,0,0,0,9.79-9.79L101.46,9A9.61,9.61,0,0,1,110.4.09L112.23,0Z"/><path class="cls-2" d="M126.94,0a9.57,9.57,0,0,1-7.51,4.5l-3.6.17a10.53,10.53,0,0,0-9.79,9.8l-.17,3.59A9.61,9.61,0,0,1,96.93,27l-3.59.17A10.52,10.52,0,0,0,83.54,37l-.17,3.59a9.61,9.61,0,0,1-8.94,8.95l-3.6.17A10.52,10.52,0,0,0,61,59.48l-.17,3.6A9.61,9.61,0,0,1,51.91,72l-3.6.17A10.52,10.52,0,0,0,38.52,82l-.17,3.59a9.61,9.61,0,0,1-8.95,8.95l-3.59.17A10.52,10.52,0,0,0,16,104.5l-.17,3.59A9.61,9.61,0,0,1,6.9,117l-3.59.17a9.76,9.76,0,0,0-2.77.55v1a8.93,8.93,0,0,1,2.81-.61l3.59-.17a10.52,10.52,0,0,0,9.8-9.79l.17-3.59a9.61,9.61,0,0,1,8.94-8.95l3.59-.17a10.52,10.52,0,0,0,9.8-9.79L39.42,82a9.61,9.61,0,0,1,8.94-8.95l3.6-.17a10.52,10.52,0,0,0,9.79-9.79l.17-3.6a9.61,9.61,0,0,1,8.94-8.95l3.6-.17a10.52,10.52,0,0,0,9.79-9.79L84.43,37a9.61,9.61,0,0,1,8.94-8.95L97,27.9a10.52,10.52,0,0,0,9.79-9.79l.17-3.59a9.61,9.61,0,0,1,8.94-8.95l3.6-.17A10.51,10.51,0,0,0,128,0Z"/><path class="cls-2" d="M133.91,0l0,1A9.61,9.61,0,0,1,124.92,10l-3.6.17A10.52,10.52,0,0,0,111.53,20l-.17,3.59a9.61,9.61,0,0,1-8.94,8.95l-3.59.17A10.52,10.52,0,0,0,89,42.46l-.17,3.59A9.61,9.61,0,0,1,79.9,55l-3.59.17a10.52,10.52,0,0,0-9.8,9.8l-.17,3.59a9.61,9.61,0,0,1-8.94,8.95l-3.6.17A10.53,10.53,0,0,0,44,87.47l-.17,3.59A9.61,9.61,0,0,1,34.88,100l-3.59.17A10.52,10.52,0,0,0,21.49,110l-.17,3.59a9.61,9.61,0,0,1-8.94,8.95l-3.59.17a10.48,10.48,0,0,0-8.25,5v2a9.64,9.64,0,0,1,8.29-6l3.59-.17a10.52,10.52,0,0,0,9.79-9.79l.17-3.59a9.61,9.61,0,0,1,8.94-8.95l3.59-.17a10.52,10.52,0,0,0,9.79-9.79l.17-3.59a9.61,9.61,0,0,1,8.94-8.95l3.6-.17a10.53,10.53,0,0,0,9.79-9.8L67.41,65a9.61,9.61,0,0,1,8.95-8.95l3.6-.17a10.52,10.52,0,0,0,9.79-9.79l.17-3.59a9.61,9.61,0,0,1,8.94-8.94l3.59-.17a10.52,10.52,0,0,0,9.79-9.79l.17-3.59A9.61,9.61,0,0,1,121.36,11l3.6-.17a10.52,10.52,0,0,0,9.79-9.79L134.81,0Z"/><path class="cls-2" d="M140.12,0a9.78,9.78,0,0,0-.61,2.92l-.17,3.59a9.61,9.61,0,0,1-8.94,8.95l-3.6.17a10.53,10.53,0,0,0-9.79,9.8L116.83,29A9.61,9.61,0,0,1,107.89,38l-3.59.17a10.52,10.52,0,0,0-9.79,9.79l-.17,3.59a9.61,9.61,0,0,1-8.94,8.95l-3.6.17A10.52,10.52,0,0,0,72,70.44L71.82,74A9.61,9.61,0,0,1,62.87,83l-3.6.17A10.52,10.52,0,0,0,49.48,93l-.17,3.59a9.61,9.61,0,0,1-8.94,8.95l-3.59.17A10.52,10.52,0,0,0,27,115.46l-.17,3.59A9.61,9.61,0,0,1,17.86,128l-3.59.17A10.52,10.52,0,0,0,4.47,138l-.17,3.59a9.51,9.51,0,0,1-3.76,7v1.1a10.46,10.46,0,0,0,4.66-8L5.36,138a9.61,9.61,0,0,1,8.95-8.95l3.59-.17a10.52,10.52,0,0,0,9.8-9.79l.17-3.59a9.61,9.61,0,0,1,8.94-8.95l3.59-.17a10.52,10.52,0,0,0,9.79-9.79l.17-3.6a9.61,9.61,0,0,1,8.94-8.95l3.6-.17a10.52,10.52,0,0,0,9.79-9.8l.17-3.6a9.61,9.61,0,0,1,8.94-8.95l3.6-.17a10.53,10.53,0,0,0,9.79-9.79L95.39,48A9.61,9.61,0,0,1,104.34,39l3.59-.17a10.52,10.52,0,0,0,9.79-9.79l.17-3.59a9.61,9.61,0,0,1,8.94-8.95l3.6-.17a10.52,10.52,0,0,0,9.79-9.8L140.41,3a9,9,0,0,1,.67-3Z"/><path class="cls-2" d="M150.21,0A10.5,10.5,0,0,0,145,8.4L144.82,12a9.61,9.61,0,0,1-8.94,8.95l-3.6.17a10.52,10.52,0,0,0-9.79,9.79l-.17,3.6a9.61,9.61,0,0,1-8.94,8.95l-3.59.17A10.52,10.52,0,0,0,100,53.42L99.81,57A9.61,9.61,0,0,1,90.86,66l-3.6.17a10.52,10.52,0,0,0-9.8,9.79l-.17,3.6a9.61,9.61,0,0,1-8.94,8.95l-3.6.17A10.52,10.52,0,0,0,55,98.43L54.79,102A9.61,9.61,0,0,1,45.84,111l-3.59.17a10.52,10.52,0,0,0-9.79,9.79l-.17,3.59a9.61,9.61,0,0,1-8.94,8.95l-3.59.17a10.52,10.52,0,0,0-9.79,9.79L9.77,147A9.61,9.61,0,0,1,.83,156H.53v.89l.34,0a10.52,10.52,0,0,0,9.79-9.79l.17-3.6a9.61,9.61,0,0,1,8.94-8.95l3.59-.17a10.52,10.52,0,0,0,9.79-9.79l.17-3.59A9.61,9.61,0,0,1,42.29,112l3.59-.17a10.52,10.52,0,0,0,9.79-9.79l.17-3.59a9.61,9.61,0,0,1,8.94-8.95l3.6-.17a10.53,10.53,0,0,0,9.79-9.79L78.37,76A9.61,9.61,0,0,1,87.31,67l3.59-.17a10.52,10.52,0,0,0,9.79-9.79l.17-3.59a9.61,9.61,0,0,1,8.94-8.95l3.59-.17a10.52,10.52,0,0,0,9.79-9.79l.17-3.59A9.61,9.61,0,0,1,132.32,22l3.6-.17A10.52,10.52,0,0,0,145.72,12l.17-3.59A9.65,9.65,0,0,1,152.3,0Z"/><path class="cls-2" d="M171,0a9.53,9.53,0,0,1-7.11,3.91l-3.6.17a10.52,10.52,0,0,0-9.79,9.79l-.17,3.6a9.61,9.61,0,0,1-8.94,8.95l-3.6.17a10.52,10.52,0,0,0-9.79,9.8L127.79,40a9.61,9.61,0,0,1-8.94,8.95l-3.59.17a10.52,10.52,0,0,0-9.79,9.79l-.17,3.59a9.61,9.61,0,0,1-8.94,8.95l-3.6.17A10.52,10.52,0,0,0,83,81.4L82.78,85a9.61,9.61,0,0,1-8.94,8.95l-3.6.17a10.53,10.53,0,0,0-9.79,9.79l-.17,3.6a9.61,9.61,0,0,1-8.94,8.95l-3.59.17a10.52,10.52,0,0,0-9.8,9.79L37.76,130A9.61,9.61,0,0,1,28.82,139l-3.59.17a10.52,10.52,0,0,0-9.8,9.79l-.17,3.59a9.61,9.61,0,0,1-8.94,8.95l-3.6.17A9.62,9.62,0,0,0,.53,162v.93a8.91,8.91,0,0,1,2.22-.41l3.6-.17a10.52,10.52,0,0,0,9.79-9.79l.17-3.59A9.61,9.61,0,0,1,25.27,140l3.59-.17a10.52,10.52,0,0,0,9.79-9.79l.17-3.59a9.61,9.61,0,0,1,8.95-8.95l3.59-.17a10.52,10.52,0,0,0,9.79-9.79l.17-3.59A9.61,9.61,0,0,1,70.28,95l3.6-.17A10.53,10.53,0,0,0,83.67,85l.17-3.6a9.61,9.61,0,0,1,8.94-8.95l3.6-.17a10.52,10.52,0,0,0,9.79-9.79l.17-3.59A9.61,9.61,0,0,1,115.3,50l3.59-.17A10.52,10.52,0,0,0,128.69,40l.17-3.59a9.61,9.61,0,0,1,8.94-8.95l3.6-.17a10.52,10.52,0,0,0,9.79-9.79l.17-3.6A9.61,9.61,0,0,1,160.31,5l3.6-.17A10.47,10.47,0,0,0,172.05,0Z"/><path class="cls-2" d="M178.31,0l0,.45a9.61,9.61,0,0,1-8.95,8.95l-3.59.17A10.52,10.52,0,0,0,156,19.36L155.78,23a9.61,9.61,0,0,1-8.94,8.95l-3.6.17a10.53,10.53,0,0,0-9.79,9.79l-.17,3.6a9.61,9.61,0,0,1-8.94,8.94l-3.59.17a10.52,10.52,0,0,0-9.79,9.79L110.77,68a9.61,9.61,0,0,1-8.94,8.95l-3.6.17a10.52,10.52,0,0,0-9.79,9.79l-.17,3.59a9.61,9.61,0,0,1-8.94,8.95l-3.6.17a10.52,10.52,0,0,0-9.79,9.8L65.75,113a9.61,9.61,0,0,1-8.95,8.95l-3.59.17a10.52,10.52,0,0,0-9.79,9.79l-.17,3.59a9.61,9.61,0,0,1-8.94,8.95l-3.59.17a10.52,10.52,0,0,0-9.79,9.79L20.73,158a9.61,9.61,0,0,1-8.95,8.95l-3.59.17a10.41,10.41,0,0,0-7.66,4.13v1.58A9.6,9.6,0,0,1,8.24,168l3.6-.17A10.52,10.52,0,0,0,21.63,158l.17-3.59a9.61,9.61,0,0,1,8.94-8.95l3.59-.17a10.52,10.52,0,0,0,9.79-9.79l.17-3.59A9.61,9.61,0,0,1,53.25,123l3.59-.17a10.52,10.52,0,0,0,9.8-9.8l.17-3.59a9.61,9.61,0,0,1,8.94-8.95l3.6-.17a10.52,10.52,0,0,0,9.79-9.79l.17-3.6A9.61,9.61,0,0,1,98.27,78l3.59-.17A10.52,10.52,0,0,0,111.66,68l.17-3.59a9.61,9.61,0,0,1,8.94-8.94l3.59-.17a10.52,10.52,0,0,0,9.79-9.79l.17-3.6A9.61,9.61,0,0,1,143.28,33l3.6-.17A10.52,10.52,0,0,0,156.68,23l.17-3.59a9.61,9.61,0,0,1,8.94-8.95l3.6-.17a10.53,10.53,0,0,0,9.8-9.79l0-.49Z"/><path class="cls-2" d="M184.36,0a9.68,9.68,0,0,0-.41,2.33l-.17,3.6a9.61,9.61,0,0,1-8.95,8.95l-3.6.17a10.53,10.53,0,0,0-9.79,9.79l-.17,3.59a9.61,9.61,0,0,1-8.94,8.95l-3.6.17a10.52,10.52,0,0,0-9.79,9.79l-.17,3.59a9.61,9.61,0,0,1-8.94,8.95l-3.59.17a10.52,10.52,0,0,0-9.79,9.79l-.17,3.59a9.61,9.61,0,0,1-8.94,8.95l-3.6.17a10.53,10.53,0,0,0-9.79,9.8L93.74,96a9.61,9.61,0,0,1-8.94,8.95l-3.6.17a10.53,10.53,0,0,0-9.79,9.8l-.17,3.59a9.61,9.61,0,0,1-8.94,8.95l-3.59.17a10.52,10.52,0,0,0-9.8,9.79L48.72,141a9.61,9.61,0,0,1-8.94,8.95l-3.59.17a10.52,10.52,0,0,0-9.79,9.79l-.17,3.59a9.61,9.61,0,0,1-8.94,8.95l-3.6.17a10.52,10.52,0,0,0-9.79,9.79L3.71,186a9.44,9.44,0,0,1-3.17,6.5v1.16A10.4,10.4,0,0,0,4.6,186l.17-3.59a9.61,9.61,0,0,1,8.94-8.95l3.6-.17a10.52,10.52,0,0,0,9.79-9.79l.17-3.59A9.61,9.61,0,0,1,36.23,151l3.59-.17A10.52,10.52,0,0,0,49.61,141l.17-3.59a9.61,9.61,0,0,1,8.95-8.95l3.59-.17a10.52,10.52,0,0,0,9.79-9.79l.17-3.59A9.61,9.61,0,0,1,81.24,106l3.6-.17A10.53,10.53,0,0,0,94.63,96l.17-3.59a9.61,9.61,0,0,1,8.94-8.95l3.6-.17a10.52,10.52,0,0,0,9.8-9.79l.17-3.59A9.61,9.61,0,0,1,126.26,61l3.59-.17A10.52,10.52,0,0,0,139.65,51l.17-3.59a9.61,9.61,0,0,1,8.94-8.95l3.6-.17a10.52,10.52,0,0,0,9.79-9.8l.17-3.59a9.61,9.61,0,0,1,8.94-8.95l3.6-.17A10.53,10.53,0,0,0,184.67,6l.17-3.6A8.89,8.89,0,0,1,185.29,0Z"/><path class="cls-2" d="M193.75,0a10.43,10.43,0,0,0-4.32,7.81l-.17,3.6a9.61,9.61,0,0,1-8.95,8.95l-3.59.17a10.52,10.52,0,0,0-9.8,9.79l-.17,3.59a9.61,9.61,0,0,1-8.94,8.95l-3.6.17a10.53,10.53,0,0,0-9.79,9.8l-.17,3.59a9.61,9.61,0,0,1-8.94,8.95l-3.59.17a10.52,10.52,0,0,0-9.79,9.79l-.17,3.59a9.61,9.61,0,0,1-8.95,8.95l-3.59.17a10.52,10.52,0,0,0-9.79,9.8l-.17,3.59a9.61,9.61,0,0,1-8.94,8.95l-3.6.17a10.52,10.52,0,0,0-9.79,9.79l-.17,3.6a9.61,9.61,0,0,1-8.95,8.95l-3.59.17a10.52,10.52,0,0,0-9.79,9.79l-.17,3.59a9.61,9.61,0,0,1-8.95,8.95l-3.59.17a10.52,10.52,0,0,0-9.8,9.79L31.69,169a9.61,9.61,0,0,1-8.95,8.95l-3.59.17a10.52,10.52,0,0,0-9.79,9.79l-.17,3.59a9.61,9.61,0,0,1-8.65,8.92v.9a10.52,10.52,0,0,0,9.55-9.77l.17-3.59A9.61,9.61,0,0,1,19.2,179l3.59-.17a10.52,10.52,0,0,0,9.8-9.79l.17-3.59a9.61,9.61,0,0,1,8.95-8.95l3.59-.17a10.52,10.52,0,0,0,9.8-9.79l.17-3.59A9.61,9.61,0,0,1,64.21,134l3.59-.17A10.52,10.52,0,0,0,77.6,124l.17-3.59a9.61,9.61,0,0,1,8.94-8.95l3.6-.17a10.52,10.52,0,0,0,9.79-9.8l.17-3.6a9.61,9.61,0,0,1,8.94-8.95l3.6-.17a10.52,10.52,0,0,0,9.8-9.79l.17-3.59a9.61,9.61,0,0,1,8.94-8.95l3.59-.17a10.52,10.52,0,0,0,9.79-9.79l.17-3.59a9.61,9.61,0,0,1,8.94-8.95l3.6-.17a10.52,10.52,0,0,0,9.79-9.8l.17-3.59a9.61,9.61,0,0,1,8.95-8.95l3.59-.17a10.52,10.52,0,0,0,9.8-9.79l.17-3.6A9.61,9.61,0,0,1,195.41,0Z"/><path class="cls-2" d="M214.93,0a9.46,9.46,0,0,1-6.63,3.32l-3.6.17a10.53,10.53,0,0,0-9.8,9.8l-.17,3.6a9.61,9.61,0,0,1-8.95,8.95l-3.6.17a10.53,10.53,0,0,0-9.79,9.8l-.17,3.59a9.61,9.61,0,0,1-8.94,8.95l-3.6.17a10.52,10.52,0,0,0-9.79,9.79l-.17,3.59a9.61,9.61,0,0,1-8.94,8.95l-3.59.17a10.52,10.52,0,0,0-9.79,9.79l-.17,3.59a9.61,9.61,0,0,1-8.94,8.95l-3.6.17a10.53,10.53,0,0,0-9.79,9.8l-.17,3.59a9.61,9.61,0,0,1-8.94,8.95l-3.6.17a10.53,10.53,0,0,0-9.79,9.8l-.17,3.59a9.61,9.61,0,0,1-8.94,8.95l-3.59.17a10.52,10.52,0,0,0-9.79,9.79l-.17,3.59a9.61,9.61,0,0,1-8.94,8.95l-3.59.17a10.52,10.52,0,0,0-9.79,9.79l-.17,3.59a9.61,9.61,0,0,1-8.94,8.95l-3.6.17a10.52,10.52,0,0,0-9.79,9.79L14.67,197a9.61,9.61,0,0,1-8.94,8.95l-3.59.17a9.61,9.61,0,0,0-1.6.22v.91A8.81,8.81,0,0,1,2.17,207l3.59-.17A10.52,10.52,0,0,0,15.56,197l.17-3.59a9.61,9.61,0,0,1,8.94-8.95l3.6-.17a10.52,10.52,0,0,0,9.79-9.8l.17-3.59a9.61,9.61,0,0,1,8.94-8.95l3.59-.17A10.52,10.52,0,0,0,60.57,152l.17-3.59a9.61,9.61,0,0,1,8.94-8.95l3.59-.17a10.52,10.52,0,0,0,9.79-9.79l.17-3.59a9.61,9.61,0,0,1,8.94-8.95l3.6-.17a10.53,10.53,0,0,0,9.79-9.79l.17-3.6a9.61,9.61,0,0,1,8.94-8.95l3.6-.17a10.52,10.52,0,0,0,9.79-9.79l.17-3.59a9.61,9.61,0,0,1,8.94-8.94l3.59-.17a10.52,10.52,0,0,0,9.79-9.79l.17-3.59a9.61,9.61,0,0,1,8.94-8.95l3.6-.17a10.53,10.53,0,0,0,9.79-9.79l.17-3.59a9.61,9.61,0,0,1,8.94-8.95l3.6-.17a10.53,10.53,0,0,0,9.8-9.8l.17-3.6a9.62,9.62,0,0,1,8.95-8.95l3.6-.17A10.42,10.42,0,0,0,216.07,0Z"/><path class="cls-2" d="M222.71,0a9.61,9.61,0,0,1-8.93,8.8l-3.6.17a10.53,10.53,0,0,0-9.79,9.79l-.17,3.6a9.61,9.61,0,0,1-8.95,8.95l-3.59.17a10.52,10.52,0,0,0-9.8,9.8l-.17,3.59a9.61,9.61,0,0,1-8.94,8.95l-3.6.17a10.52,10.52,0,0,0-9.79,9.79l-.17,3.59a9.61,9.61,0,0,1-8.94,8.95l-3.59.17a10.52,10.52,0,0,0-9.79,9.79l-.17,3.59a9.61,9.61,0,0,1-8.95,8.95l-3.59.17a10.52,10.52,0,0,0-9.8,9.79l-.17,3.6a9.61,9.61,0,0,1-8.94,8.95l-3.6.17a10.52,10.52,0,0,0-9.79,9.79l-.17,3.59a9.61,9.61,0,0,1-8.94,8.95l-3.59.17a10.52,10.52,0,0,0-9.79,9.79l-.17,3.59a9.61,9.61,0,0,1-8.95,8.95l-3.59.17a10.52,10.52,0,0,0-9.8,9.8l-.17,3.59a9.61,9.61,0,0,1-8.95,8.95l-3.6.17a10.52,10.52,0,0,0-9.79,9.79l-.17,3.59a9.61,9.61,0,0,1-8.94,8.95l-3.59.17A10.33,10.33,0,0,0,.53,215v1.39a9.52,9.52,0,0,1,7.12-3.93l3.59-.17A10.52,10.52,0,0,0,21,202.48l.17-3.59a9.61,9.61,0,0,1,8.95-8.95l3.59-.17a10.52,10.52,0,0,0,9.8-9.79l.17-3.59a9.61,9.61,0,0,1,8.95-8.95l3.59-.17a10.52,10.52,0,0,0,9.8-9.79l.17-3.59a9.61,9.61,0,0,1,8.94-8.95l3.6-.17A10.52,10.52,0,0,0,88.56,135l.17-3.6a9.61,9.61,0,0,1,8.94-8.95l3.6-.17a10.52,10.52,0,0,0,9.79-9.79l.17-3.59a9.61,9.61,0,0,1,8.95-8.95l3.59-.17a10.52,10.52,0,0,0,9.8-9.79l.17-3.59a9.61,9.61,0,0,1,8.94-8.95l3.59-.17a10.52,10.52,0,0,0,9.79-9.79l.17-3.59a9.61,9.61,0,0,1,8.94-8.95l3.6-.17a10.52,10.52,0,0,0,9.79-9.8l.17-3.59a9.61,9.61,0,0,1,8.95-8.95l3.59-.17a10.52,10.52,0,0,0,9.8-9.79l.17-3.6a9.61,9.61,0,0,1,8.95-8.95l3.6-.17A10.53,10.53,0,0,0,223.61,0Z"/><path class="cls-2" d="M228.63,0a9.62,9.62,0,0,0-.25,1.74l-.17,3.59a9.61,9.61,0,0,1-8.94,8.95l-3.6.17a10.53,10.53,0,0,0-9.8,9.8l-.17,3.6a9.61,9.61,0,0,1-8.95,8.95l-3.6.17a10.52,10.52,0,0,0-9.79,9.79l-.17,3.59a9.61,9.61,0,0,1-8.94,8.95l-3.6.17a10.52,10.52,0,0,0-9.79,9.79l-.17,3.59a9.61,9.61,0,0,1-8.94,8.95l-3.59.17a10.52,10.52,0,0,0-9.79,9.79l-.17,3.59a9.61,9.61,0,0,1-8.94,8.95l-3.6.17a10.53,10.53,0,0,0-9.79,9.8l-.17,3.59a9.61,9.61,0,0,1-8.94,8.95l-3.6.17a10.53,10.53,0,0,0-9.79,9.8l-.17,3.59a9.61,9.61,0,0,1-8.94,8.95l-3.59.17a10.52,10.52,0,0,0-9.79,9.79l-.17,3.59a9.61,9.61,0,0,1-8.94,8.95L58.1,172a10.52,10.52,0,0,0-9.79,9.79l-.17,3.59a9.61,9.61,0,0,1-8.94,8.95l-3.6.17a10.52,10.52,0,0,0-9.79,9.79l-.17,3.59a9.61,9.61,0,0,1-8.94,8.95l-3.59.17a10.52,10.52,0,0,0-9.79,9.79l-.17,3.59a9.36,9.36,0,0,1-2.59,5.93v1.24A10.34,10.34,0,0,0,4,230.46l.17-3.59a9.61,9.61,0,0,1,8.94-8.94l3.59-.17A10.52,10.52,0,0,0,26.52,208l.17-3.59a9.61,9.61,0,0,1,8.94-8.95l3.6-.17a10.52,10.52,0,0,0,9.79-9.8l.17-3.59a9.61,9.61,0,0,1,8.94-8.95l3.59-.17a10.52,10.52,0,0,0,9.8-9.79l.17-3.59a9.61,9.61,0,0,1,8.94-8.95l3.59-.17A10.52,10.52,0,0,0,94,140.43l.17-3.59a9.61,9.61,0,0,1,8.94-8.95l3.6-.17a10.52,10.52,0,0,0,9.79-9.8l.17-3.59a9.61,9.61,0,0,1,8.94-8.95l3.6-.17a10.52,10.52,0,0,0,9.79-9.79l.17-3.59a9.61,9.61,0,0,1,8.94-8.94l3.59-.17a10.52,10.52,0,0,0,9.79-9.79l.17-3.59a9.61,9.61,0,0,1,8.94-8.95l3.6-.17a10.52,10.52,0,0,0,9.79-9.79l.17-3.59a9.61,9.61,0,0,1,8.94-8.95l3.6-.17a10.53,10.53,0,0,0,9.8-9.79l.17-3.6a9.62,9.62,0,0,1,8.95-8.95l3.6-.17a10.52,10.52,0,0,0,9.79-9.79l.17-3.59A8.86,8.86,0,0,1,229.54,0Z"/><path class="cls-2" d="M237.44,0a10.36,10.36,0,0,0-3.59,7.22l-.17,3.59a9.61,9.61,0,0,1-8.95,8.95l-3.6.17a10.53,10.53,0,0,0-9.79,9.8l-.17,3.6a9.61,9.61,0,0,1-8.95,8.95l-3.59.17a10.52,10.52,0,0,0-9.8,9.79l-.17,3.59a9.61,9.61,0,0,1-8.94,8.95l-3.6.17a10.53,10.53,0,0,0-9.79,9.8l-.17,3.59a9.61,9.61,0,0,1-8.94,8.95l-3.59.17a10.52,10.52,0,0,0-9.79,9.79l-.17,3.59a9.61,9.61,0,0,1-8.95,8.95l-3.59.17a10.52,10.52,0,0,0-9.8,9.79l-.17,3.59a9.61,9.61,0,0,1-8.94,8.95l-3.6.17a10.53,10.53,0,0,0-9.79,9.79l-.17,3.59a9.61,9.61,0,0,1-8.94,8.95l-3.59.17a10.52,10.52,0,0,0-9.8,9.79l-.17,3.59a9.61,9.61,0,0,1-8.94,8.95l-3.59.17a10.52,10.52,0,0,0-9.8,9.79l-.17,3.59a9.61,9.61,0,0,1-8.95,8.95l-3.59.17a10.52,10.52,0,0,0-9.79,9.79l-.17,3.59a9.61,9.61,0,0,1-8.94,8.95l-3.59.17a10.52,10.52,0,0,0-9.79,9.79L8.6,235.9a9.64,9.64,0,0,1-8.07,8.86v.9a10.55,10.55,0,0,0,9-9.71l.17-3.59a9.61,9.61,0,0,1,8.94-8.95l3.59-.17A10.52,10.52,0,0,0,32,213.44l.17-3.59a9.61,9.61,0,0,1,8.95-8.95l3.59-.17a10.52,10.52,0,0,0,9.8-9.79l.17-3.59a9.61,9.61,0,0,1,8.95-8.95l3.59-.17A10.52,10.52,0,0,0,77,168.42l.17-3.59a9.61,9.61,0,0,1,8.95-8.95l3.59-.17a10.52,10.52,0,0,0,9.79-9.79l.17-3.6a9.61,9.61,0,0,1,8.94-8.95l3.6-.17a10.53,10.53,0,0,0,9.79-9.8l.17-3.59a9.61,9.61,0,0,1,8.95-8.95l3.59-.17a10.52,10.52,0,0,0,9.8-9.79l.17-3.59a9.61,9.61,0,0,1,8.94-8.95l3.59-.17A10.52,10.52,0,0,0,167,78.39l.17-3.59a9.61,9.61,0,0,1,8.94-8.95l3.6-.17a10.52,10.52,0,0,0,9.79-9.8l.17-3.59a9.61,9.61,0,0,1,8.95-8.95l3.6-.17a10.52,10.52,0,0,0,9.8-9.79l.17-3.6a9.61,9.61,0,0,1,8.95-8.95l3.6-.17a10.53,10.53,0,0,0,9.79-9.8l.17-3.59A9.55,9.55,0,0,1,238.87,0Z"/><path class="cls-2" d="M258.81,0a9.39,9.39,0,0,1-6.08,2.73l-3.6.17a10.52,10.52,0,0,0-9.79,9.8l-.17,3.59a9.61,9.61,0,0,1-8.95,8.95l-3.6.17a10.53,10.53,0,0,0-9.8,9.79l-.17,3.6a9.61,9.61,0,0,1-8.95,8.95l-3.6.17a10.52,10.52,0,0,0-9.79,9.8l-.17,3.59a9.61,9.61,0,0,1-8.94,8.95l-3.6.17a10.53,10.53,0,0,0-9.79,9.8l-.17,3.59a9.61,9.61,0,0,1-8.94,8.95l-3.59.17a10.52,10.52,0,0,0-9.79,9.79l-.17,3.59a9.61,9.61,0,0,1-8.94,8.95l-3.6.17a10.52,10.52,0,0,0-9.79,9.79l-.17,3.6a9.61,9.61,0,0,1-8.94,8.95l-3.6.17a10.52,10.52,0,0,0-9.79,9.79l-.17,3.59a9.61,9.61,0,0,1-8.95,8.95l-3.59.17a10.52,10.52,0,0,0-9.79,9.79l-.17,3.59a9.61,9.61,0,0,1-8.94,8.95l-3.59.17a10.52,10.52,0,0,0-9.79,9.79l-.17,3.59a9.61,9.61,0,0,1-8.94,8.95l-3.6.17a10.52,10.52,0,0,0-9.79,9.79l-.17,3.59a9.61,9.61,0,0,1-8.94,8.95L24,228a10.52,10.52,0,0,0-9.79,9.79l-.17,3.59a9.61,9.61,0,0,1-8.94,8.95l-3.59.17a9.64,9.64,0,0,0-1,.1v.91a8.94,8.94,0,0,1,1.05-.12l3.59-.17A10.52,10.52,0,0,0,15,241.42l.17-3.59a9.61,9.61,0,0,1,8.94-8.95l3.59-.17a10.52,10.52,0,0,0,9.79-9.79l.17-3.59a9.61,9.61,0,0,1,8.94-8.95l3.6-.17A10.52,10.52,0,0,0,60,196.41l.17-3.59a9.61,9.61,0,0,1,8.94-8.95l3.59-.17a10.52,10.52,0,0,0,9.79-9.79l.17-3.59a9.61,9.61,0,0,1,8.94-8.95l3.59-.17a10.52,10.52,0,0,0,9.8-9.79l.17-3.59a9.61,9.61,0,0,1,8.94-8.95l3.6-.17a10.52,10.52,0,0,0,9.79-9.79l.17-3.6a9.61,9.61,0,0,1,8.94-8.95l3.6-.17a10.52,10.52,0,0,0,9.79-9.8l.17-3.59a9.61,9.61,0,0,1,8.94-8.95l3.59-.17a10.52,10.52,0,0,0,9.79-9.79l.17-3.59a9.61,9.61,0,0,1,8.94-8.95l3.6-.17a10.53,10.53,0,0,0,9.79-9.8l.17-3.59a9.61,9.61,0,0,1,8.94-8.95l3.6-.17a10.53,10.53,0,0,0,9.8-9.79l.17-3.6a9.61,9.61,0,0,1,8.95-8.95l3.6-.17a10.52,10.52,0,0,0,9.79-9.79l.17-3.59a9.61,9.61,0,0,1,8.94-8.95l3.6-.17A10.36,10.36,0,0,0,260,0Z"/><path class="cls-2" d="M264,5.74a9.34,9.34,0,0,1-5.81,2.47l-3.6.17a10.52,10.52,0,0,0-9.79,9.8l-.17,3.59a9.61,9.61,0,0,1-8.95,8.95l-3.6.17a10.53,10.53,0,0,0-9.8,9.79l-.17,3.6a9.61,9.61,0,0,1-8.95,8.95l-3.59.17a10.52,10.52,0,0,0-9.8,9.79l-.17,3.59a9.61,9.61,0,0,1-8.94,8.95l-3.6.17a10.52,10.52,0,0,0-9.79,9.79l-.17,3.59a9.61,9.61,0,0,1-8.94,8.95l-3.59.17a10.52,10.52,0,0,0-9.79,9.79l-.17,3.59a9.61,9.61,0,0,1-8.95,8.95l-3.59.17a10.52,10.52,0,0,0-9.8,9.79l-.17,3.59a9.61,9.61,0,0,1-8.94,8.95l-3.6.17a10.53,10.53,0,0,0-9.79,9.79l-.17,3.6a9.61,9.61,0,0,1-8.94,8.95l-3.59.17a10.52,10.52,0,0,0-9.8,9.79l-.17,3.59a9.61,9.61,0,0,1-8.94,8.95l-3.59.17a10.52,10.52,0,0,0-9.79,9.79l-.17,3.59a9.61,9.61,0,0,1-8.94,8.95L52,211a10.52,10.52,0,0,0-9.8,9.79l-.17,3.59a9.61,9.61,0,0,1-8.94,8.95l-3.59.17a10.52,10.52,0,0,0-9.79,9.79l-.17,3.59a9.61,9.61,0,0,1-8.94,8.95L7,256a10.25,10.25,0,0,0-6.49,2.83v1.27a9.45,9.45,0,0,1,6.53-3.21l3.59-.17a10.52,10.52,0,0,0,9.79-9.79l.17-3.59a9.61,9.61,0,0,1,8.94-8.95l3.59-.17A10.52,10.52,0,0,0,43,224.4l.17-3.59a9.61,9.61,0,0,1,8.94-8.95l3.6-.17a10.52,10.52,0,0,0,9.79-9.79l.17-3.59a9.61,9.61,0,0,1,8.94-8.95l3.59-.17A10.52,10.52,0,0,0,88,179.38l.17-3.59a9.61,9.61,0,0,1,8.95-8.95l3.59-.17a10.52,10.52,0,0,0,9.79-9.79l.17-3.59a9.61,9.61,0,0,1,8.94-8.95l3.6-.17a10.53,10.53,0,0,0,9.79-9.8l.17-3.59a9.61,9.61,0,0,1,8.95-8.95l3.6-.17a10.52,10.52,0,0,0,9.79-9.79l.17-3.59a9.61,9.61,0,0,1,8.94-8.94l3.59-.17A10.52,10.52,0,0,0,178,89.35l.17-3.59a9.61,9.61,0,0,1,8.94-8.95l3.6-.17a10.53,10.53,0,0,0,9.79-9.79l.17-3.59a9.61,9.61,0,0,1,8.95-8.95l3.6-.17a10.52,10.52,0,0,0,9.8-9.79l.17-3.6a9.61,9.61,0,0,1,8.95-8.95l3.6-.17a10.53,10.53,0,0,0,9.79-9.8l.17-3.59a9.61,9.61,0,0,1,8.95-8.95l3.6-.17A10.14,10.14,0,0,0,264,6.9Z"/><path class="cls-2" d="M264,13.66l-.33,0-3.6.17a10.52,10.52,0,0,0-9.79,9.8l-.17,3.59a9.61,9.61,0,0,1-8.94,8.95l-3.6.17a10.53,10.53,0,0,0-9.8,9.8l-.17,3.6a9.61,9.61,0,0,1-8.95,8.95l-3.6.17a10.52,10.52,0,0,0-9.79,9.79l-.17,3.59a9.61,9.61,0,0,1-8.94,8.95l-3.6.17a10.53,10.53,0,0,0-9.79,9.8l-.17,3.59a9.61,9.61,0,0,1-8.94,8.95l-3.59.17a10.52,10.52,0,0,0-9.79,9.79l-.17,3.59a9.61,9.61,0,0,1-8.94,8.95l-3.6.17a10.52,10.52,0,0,0-9.79,9.79l-.17,3.6a9.61,9.61,0,0,1-8.94,8.95l-3.6.17a10.52,10.52,0,0,0-9.79,9.8l-.17,3.59a9.61,9.61,0,0,1-8.95,8.95l-3.59.17a10.52,10.52,0,0,0-9.8,9.79l-.17,3.59a9.61,9.61,0,0,1-8.95,8.95l-3.59.17a10.52,10.52,0,0,0-9.8,9.79l-.17,3.59a9.61,9.61,0,0,1-8.94,8.95l-3.6.17a10.52,10.52,0,0,0-9.79,9.79l-.17,3.59a9.61,9.61,0,0,1-8.94,8.95L35,239a10.52,10.52,0,0,0-9.79,9.79L25,252.34a9.61,9.61,0,0,1-8.94,8.95l-3.59.17a10.56,10.56,0,0,0-9.16,6.8h1a9.63,9.63,0,0,1,8.24-5.9l3.59-.17a10.52,10.52,0,0,0,9.79-9.79l.17-3.59A9.61,9.61,0,0,1,35,239.84l3.59-.17a10.52,10.52,0,0,0,9.79-9.79l.17-3.59a9.61,9.61,0,0,1,8.94-8.95l3.6-.17a10.52,10.52,0,0,0,9.79-9.79l.17-3.59a9.61,9.61,0,0,1,8.95-8.95l3.59-.17a10.52,10.52,0,0,0,9.8-9.79l.17-3.59a9.61,9.61,0,0,1,8.94-8.95l3.59-.17a10.52,10.52,0,0,0,9.8-9.79l.17-3.59a9.61,9.61,0,0,1,8.94-8.95l3.6-.17a10.52,10.52,0,0,0,9.79-9.79l.17-3.6a9.61,9.61,0,0,1,8.94-8.95l3.6-.17a10.53,10.53,0,0,0,9.79-9.79l.17-3.59a9.61,9.61,0,0,1,8.94-8.95l3.59-.17a10.52,10.52,0,0,0,9.79-9.79l.17-3.59a9.61,9.61,0,0,1,8.94-8.95l3.6-.17a10.52,10.52,0,0,0,9.79-9.8l.17-3.59a9.61,9.61,0,0,1,8.94-8.95l3.6-.17a10.53,10.53,0,0,0,9.8-9.79l.17-3.6a9.61,9.61,0,0,1,8.95-8.95l3.6-.17A10.52,10.52,0,0,0,251,27.3l.17-3.59a9.61,9.61,0,0,1,8.94-8.95l3.6-.17.29,0Z"/><path class="cls-2" d="M264,19.56a10.56,10.56,0,0,0-8.24,9.58l-.17,3.59a9.61,9.61,0,0,1-8.94,8.95l-3.6.17a10.53,10.53,0,0,0-9.8,9.8l-.17,3.6a9.61,9.61,0,0,1-8.95,8.95l-3.6.17a10.52,10.52,0,0,0-9.8,9.8l-.17,3.59a9.61,9.61,0,0,1-8.94,8.95l-3.6.17a10.52,10.52,0,0,0-9.79,9.8l-.17,3.59a9.61,9.61,0,0,1-8.94,8.95l-3.59.17a10.52,10.52,0,0,0-9.79,9.79l-.17,3.59a9.61,9.61,0,0,1-8.94,8.95l-3.59.17a10.52,10.52,0,0,0-9.8,9.79l-.17,3.59a9.61,9.61,0,0,1-8.94,8.95l-3.6.17a10.53,10.53,0,0,0-9.79,9.8l-.17,3.59a9.61,9.61,0,0,1-8.94,8.95l-3.59.17a10.52,10.52,0,0,0-9.79,9.79L98,190.3a9.61,9.61,0,0,1-8.94,8.95l-3.59.17a10.52,10.52,0,0,0-9.79,9.79l-.17,3.59a9.61,9.61,0,0,1-8.94,8.95l-3.6.17a10.52,10.52,0,0,0-9.8,9.79L53,235.31a9.61,9.61,0,0,1-8.94,8.95l-3.59.17a10.52,10.52,0,0,0-9.79,9.79l-.17,3.59a9.61,9.61,0,0,1-8.94,8.95l-3.59.17a10,10,0,0,0-4.45,1.32h2.21a8.9,8.9,0,0,1,2.28-.42l3.59-.17a10.52,10.52,0,0,0,9.79-9.79l.17-3.59a9.61,9.61,0,0,1,8.94-8.95l3.59-.17a10.52,10.52,0,0,0,9.79-9.79l.17-3.59A9.61,9.61,0,0,1,63,222.82l3.59-.17a10.52,10.52,0,0,0,9.79-9.79l.17-3.59a9.61,9.61,0,0,1,8.94-8.95l3.59-.17a10.52,10.52,0,0,0,9.79-9.79l.17-3.59a9.61,9.61,0,0,1,8.94-8.95l3.59-.17a10.52,10.52,0,0,0,9.79-9.79l.17-3.59a9.61,9.61,0,0,1,8.94-8.95l3.6-.17a10.53,10.53,0,0,0,9.79-9.8l.17-3.59a9.61,9.61,0,0,1,8.95-8.95l3.59-.17a10.52,10.52,0,0,0,9.79-9.8l.17-3.59a9.61,9.61,0,0,1,8.94-8.94l3.59-.17a10.52,10.52,0,0,0,9.79-9.79l.17-3.59a9.61,9.61,0,0,1,8.94-8.95l3.6-.17a10.52,10.52,0,0,0,9.79-9.8l.17-3.59a9.61,9.61,0,0,1,8.95-8.95l3.59-.17a10.53,10.53,0,0,0,9.8-9.79l.17-3.6a9.62,9.62,0,0,1,8.95-8.95l3.6-.17a10.53,10.53,0,0,0,9.79-9.79l.17-3.59A9.65,9.65,0,0,1,264,20.47Z"/><path class="cls-2" d="M264,28.21a10.23,10.23,0,0,0-2.76,6.41l-.17,3.59a9.61,9.61,0,0,1-8.95,8.95l-3.6.17a10.53,10.53,0,0,0-9.79,9.79l-.17,3.6a9.61,9.61,0,0,1-8.95,8.95l-3.6.17a10.52,10.52,0,0,0-9.79,9.79l-.17,3.59a9.61,9.61,0,0,1-8.94,8.95l-3.6.17a10.53,10.53,0,0,0-9.79,9.8l-.17,3.59a9.61,9.61,0,0,1-8.94,8.95l-3.59.17a10.52,10.52,0,0,0-9.79,9.79l-.17,3.59a9.61,9.61,0,0,1-8.94,8.95l-3.6.17a10.52,10.52,0,0,0-9.79,9.79l-.17,3.59a9.61,9.61,0,0,1-8.94,8.95l-3.6.17a10.52,10.52,0,0,0-9.79,9.79l-.17,3.6a9.61,9.61,0,0,1-8.94,8.95l-3.6.17a10.52,10.52,0,0,0-9.79,9.79l-.17,3.59a9.61,9.61,0,0,1-8.95,8.95L91,204.9a10.52,10.52,0,0,0-9.8,9.79L81,218.28a9.61,9.61,0,0,1-8.94,8.95l-3.6.17a10.52,10.52,0,0,0-9.79,9.79l-.17,3.59a9.61,9.61,0,0,1-8.94,8.95l-3.59.17a10.52,10.52,0,0,0-9.8,9.79L36,263.3a9.22,9.22,0,0,1-1.78,5h1.07a10,10,0,0,0,1.6-4.91l.17-3.59A9.61,9.61,0,0,1,46,250.8l3.59-.17a10.52,10.52,0,0,0,9.79-9.79l.17-3.59a9.61,9.61,0,0,1,8.94-8.95l3.6-.17a10.52,10.52,0,0,0,9.8-9.79l.17-3.59A9.61,9.61,0,0,1,91,205.79l3.59-.17a10.52,10.52,0,0,0,9.8-9.79l.17-3.59a9.61,9.61,0,0,1,8.94-8.95l3.59-.17a10.52,10.52,0,0,0,9.79-9.79l.17-3.59a9.61,9.61,0,0,1,8.94-8.95l3.6-.17a10.52,10.52,0,0,0,9.79-9.8l.17-3.59a9.61,9.61,0,0,1,8.94-8.95l3.6-.17a10.53,10.53,0,0,0,9.79-9.79l.17-3.59a9.61,9.61,0,0,1,8.94-8.95l3.59-.17a10.52,10.52,0,0,0,9.79-9.79l.17-3.59a9.61,9.61,0,0,1,8.94-8.95l3.6-.17a10.52,10.52,0,0,0,9.79-9.8l.17-3.59a9.61,9.61,0,0,1,8.94-8.95l3.6-.17a10.53,10.53,0,0,0,9.8-9.79l.17-3.6a9.61,9.61,0,0,1,8.95-8.95l3.6-.17a10.53,10.53,0,0,0,9.79-9.8l.17-3.59A9.23,9.23,0,0,1,264,29.59Z"/><path class="cls-2" d="M264,49.58a9.43,9.43,0,0,1-6.4,3.06l-3.6.17a10.53,10.53,0,0,0-9.8,9.8l-.17,3.6a9.61,9.61,0,0,1-8.95,8.95l-3.59.17a10.52,10.52,0,0,0-9.79,9.79l-.17,3.59a9.61,9.61,0,0,1-8.94,8.95l-3.6.17a10.52,10.52,0,0,0-9.79,9.79l-.17,3.6a9.61,9.61,0,0,1-8.94,8.95l-3.59.17a10.52,10.52,0,0,0-9.79,9.79l-.17,3.59a9.61,9.61,0,0,1-8.94,8.95l-3.6.17a10.52,10.52,0,0,0-9.8,9.79l-.17,3.59a9.61,9.61,0,0,1-8.94,8.95l-3.6.17a10.52,10.52,0,0,0-9.8,9.8l-.17,3.59a9.61,9.61,0,0,1-8.94,8.95l-3.59.17a10.52,10.52,0,0,0-9.79,9.79l-.17,3.59a9.61,9.61,0,0,1-8.94,8.95l-3.59.17a10.52,10.52,0,0,0-9.79,9.79l-.17,3.6a9.61,9.61,0,0,1-8.95,8.95l-3.59.17a10.52,10.52,0,0,0-9.8,9.79L64,246.27A9.61,9.61,0,0,1,55,255.22l-3.59.17a10.52,10.52,0,0,0-9.79,9.79l-.15,3.07h.9l.15-3a9.61,9.61,0,0,1,8.94-8.95l3.59-.17a10.52,10.52,0,0,0,9.79-9.79l.17-3.59A9.61,9.61,0,0,1,74,233.78l3.6-.17a10.52,10.52,0,0,0,9.79-9.79l.17-3.59a9.61,9.61,0,0,1,8.94-8.95l3.59-.17a10.52,10.52,0,0,0,9.79-9.8l.17-3.59a9.61,9.61,0,0,1,8.94-8.95l3.59-.17a10.52,10.52,0,0,0,9.79-9.79l.17-3.59a9.61,9.61,0,0,1,8.95-8.95l3.6-.17a10.52,10.52,0,0,0,9.79-9.79l.17-3.6a9.61,9.61,0,0,1,8.95-8.95l3.59-.17a10.52,10.52,0,0,0,9.79-9.79l.17-3.59a9.61,9.61,0,0,1,8.94-8.95l3.59-.17a10.52,10.52,0,0,0,9.79-9.79l.17-3.59A9.61,9.61,0,0,1,209,98.73l3.6-.17a10.52,10.52,0,0,0,9.79-9.79l.17-3.59a9.61,9.61,0,0,1,8.94-8.95l3.6-.17a10.53,10.53,0,0,0,9.8-9.8l.17-3.6a9.61,9.61,0,0,1,8.95-8.95l3.6-.17A10.23,10.23,0,0,0,264,50.82Z"/><path class="cls-2" d="M264,58a8.92,8.92,0,0,1-.92.1l-3.6.17a10.53,10.53,0,0,0-9.79,9.79l-.17,3.6a9.61,9.61,0,0,1-8.95,8.95l-3.6.17a10.53,10.53,0,0,0-9.79,9.8L227,94.2a9.61,9.61,0,0,1-8.94,8.95l-3.6.17a10.52,10.52,0,0,0-9.79,9.79l-.17,3.59a9.61,9.61,0,0,1-8.94,8.95l-3.59.17a10.52,10.52,0,0,0-9.79,9.79l-.17,3.59a9.61,9.61,0,0,1-8.94,8.95l-3.6.17a10.53,10.53,0,0,0-9.79,9.79l-.17,3.6a9.61,9.61,0,0,1-8.94,8.95l-3.6.17a10.53,10.53,0,0,0-9.79,9.79l-.17,3.59a9.61,9.61,0,0,1-8.94,8.95l-3.59.17a10.52,10.52,0,0,0-9.8,9.79l-.17,3.59a9.61,9.61,0,0,1-8.94,8.95l-3.59.17a10.52,10.52,0,0,0-9.8,9.79L92,229.24A9.61,9.61,0,0,1,83,238.19l-3.6.17a10.53,10.53,0,0,0-9.79,9.8l-.17,3.59a9.61,9.61,0,0,1-8.94,8.95l-3.59.17a10.56,10.56,0,0,0-9.36,7.38h.93A9.65,9.65,0,0,1,57,261.76l3.59-.17a10.52,10.52,0,0,0,9.79-9.79l.17-3.59a9.61,9.61,0,0,1,8.94-8.95l3.6-.17a10.52,10.52,0,0,0,9.79-9.79l.17-3.59a9.61,9.61,0,0,1,8.95-8.95l3.59-.17a10.52,10.52,0,0,0,9.79-9.79l.17-3.59a9.61,9.61,0,0,1,8.95-8.95l3.59-.17a10.52,10.52,0,0,0,9.79-9.79l.17-3.6a9.61,9.61,0,0,1,8.94-8.95l3.6-.17a10.53,10.53,0,0,0,9.79-9.8l.17-3.59a9.61,9.61,0,0,1,8.94-8.95l3.6-.17a10.53,10.53,0,0,0,9.79-9.79l.17-3.59a9.61,9.61,0,0,1,8.94-8.95l3.59-.17a10.52,10.52,0,0,0,9.79-9.79l.17-3.59a9.61,9.61,0,0,1,8.94-8.95l3.6-.17a10.52,10.52,0,0,0,9.79-9.79l.17-3.6A9.61,9.61,0,0,1,237,81.7l3.6-.17a10.53,10.53,0,0,0,9.79-9.79l.17-3.6a9.61,9.61,0,0,1,8.95-8.95l3.6-.17c.3,0,.59,0,.88-.09Z"/><path class="cls-2" d="M264,63.87a10.56,10.56,0,0,0-8.83,9.7l-.17,3.6a9.61,9.61,0,0,1-8.95,8.95l-3.6.17a10.52,10.52,0,0,0-9.79,9.79l-.17,3.59a9.61,9.61,0,0,1-8.94,8.95l-3.6.17a10.53,10.53,0,0,0-9.79,9.79l-.17,3.59a9.61,9.61,0,0,1-8.94,8.94l-3.59.17a10.52,10.52,0,0,0-9.79,9.79l-.17,3.59a9.61,9.61,0,0,1-8.94,8.95l-3.59.17a10.52,10.52,0,0,0-9.79,9.79L165,167.2a9.61,9.61,0,0,1-8.94,8.95l-3.6.17a10.52,10.52,0,0,0-9.79,9.8l-.17,3.59a9.61,9.61,0,0,1-8.95,8.95l-3.59.17a10.52,10.52,0,0,0-9.79,9.79l-.17,3.59a9.61,9.61,0,0,1-8.94,8.95l-3.59.17a10.52,10.52,0,0,0-9.79,9.79l-.17,3.59a9.61,9.61,0,0,1-8.95,8.95l-3.59.17a10.52,10.52,0,0,0-9.79,9.79l-.17,3.59A9.61,9.61,0,0,1,66,266.18l-3.59.17a10.09,10.09,0,0,0-5.37,1.9h1.71a9,9,0,0,1,3.7-1l3.59-.17a10.52,10.52,0,0,0,9.79-9.79l.17-3.59A9.61,9.61,0,0,1,85,244.74l3.59-.17a10.52,10.52,0,0,0,9.79-9.79l.17-3.59a9.61,9.61,0,0,1,8.94-8.95l3.59-.17a10.52,10.52,0,0,0,9.79-9.79l.17-3.59a9.61,9.61,0,0,1,8.95-8.95l3.59-.17a10.52,10.52,0,0,0,9.8-9.79l.17-3.59a9.61,9.61,0,0,1,8.94-8.95l3.6-.17a10.52,10.52,0,0,0,9.79-9.8l.17-3.59A9.61,9.61,0,0,1,175,154.7l3.6-.17a10.52,10.52,0,0,0,9.79-9.79l.17-3.59a9.61,9.61,0,0,1,8.94-8.94l3.59-.17a10.52,10.52,0,0,0,9.79-9.79l.17-3.6a9.61,9.61,0,0,1,8.94-8.95l3.6-.17a10.52,10.52,0,0,0,9.79-9.79l.17-3.59a9.61,9.61,0,0,1,8.94-8.95l3.59-.17a10.53,10.53,0,0,0,9.8-9.79l.17-3.6A9.64,9.64,0,0,1,264,64.78Z"/><path class="cls-2" d="M264,72a10.32,10.32,0,0,0-3.35,7l-.17,3.6a9.61,9.61,0,0,1-8.95,8.95l-3.6.17a10.53,10.53,0,0,0-9.79,9.79l-.17,3.6A9.61,9.61,0,0,1,229,114.1l-3.6.17a10.52,10.52,0,0,0-9.79,9.79l-.17,3.59a9.61,9.61,0,0,1-8.94,8.95l-3.59.17a10.52,10.52,0,0,0-9.79,9.79l-.17,3.59a9.61,9.61,0,0,1-8.94,8.95l-3.6.17a10.52,10.52,0,0,0-9.79,9.8l-.17,3.59a9.61,9.61,0,0,1-8.94,8.95l-3.6.17a10.53,10.53,0,0,0-9.79,9.8l-.17,3.59a9.61,9.61,0,0,1-8.94,8.95l-3.59.17a10.52,10.52,0,0,0-9.8,9.79l-.17,3.59a9.61,9.61,0,0,1-8.94,8.95l-3.59.17a10.52,10.52,0,0,0-9.79,9.79l-.17,3.59A9.61,9.61,0,0,1,94,249.15l-3.6.17a10.52,10.52,0,0,0-9.79,9.79l-.17,3.59a9.32,9.32,0,0,1-2.23,5.54h1.12a10.11,10.11,0,0,0,2-5.5l.17-3.59a9.61,9.61,0,0,1,8.94-8.95L94,250a10.52,10.52,0,0,0,9.79-9.79l.17-3.59a9.61,9.61,0,0,1,8.94-8.95l3.59-.17a10.52,10.52,0,0,0,9.79-9.8l.17-3.59a9.61,9.61,0,0,1,8.95-8.95L139,205a10.52,10.52,0,0,0,9.79-9.79l.17-3.59a9.61,9.61,0,0,1,8.94-8.95l3.6-.17a10.53,10.53,0,0,0,9.79-9.8l.17-3.59a9.61,9.61,0,0,1,8.94-8.95l3.6-.17a10.52,10.52,0,0,0,9.79-9.79l.17-3.59a9.61,9.61,0,0,1,8.94-8.95l3.59-.17a10.52,10.52,0,0,0,9.79-9.79l.17-3.59a9.61,9.61,0,0,1,8.94-8.95l3.6-.17a10.52,10.52,0,0,0,9.79-9.79l.17-3.59A9.61,9.61,0,0,1,248,92.66l3.6-.17a10.53,10.53,0,0,0,9.79-9.8l.17-3.6A9.34,9.34,0,0,1,264,73.31Z"/><path class="cls-2" d="M264,93.31a9.51,9.51,0,0,1-7,3.76l-3.59.17a10.52,10.52,0,0,0-9.8,9.79l-.17,3.59a9.61,9.61,0,0,1-8.94,8.95l-3.6.17a10.53,10.53,0,0,0-9.79,9.8l-.17,3.59a9.61,9.61,0,0,1-8.94,8.95l-3.59.17a10.52,10.52,0,0,0-9.79,9.79l-.17,3.59a9.61,9.61,0,0,1-8.95,8.95l-3.6.17a10.52,10.52,0,0,0-9.79,9.79l-.17,3.6a9.61,9.61,0,0,1-8.94,8.95l-3.6.17a10.52,10.52,0,0,0-9.79,9.79l-.17,3.6a9.61,9.61,0,0,1-8.95,8.95l-3.59.17a10.52,10.52,0,0,0-9.79,9.79l-.17,3.59a9.61,9.61,0,0,1-8.95,8.95l-3.59.17a10.52,10.52,0,0,0-9.8,9.8l-.17,3.59a9.61,9.61,0,0,1-8.95,8.95l-3.6.17a10.52,10.52,0,0,0-9.79,9.79l-.17,3.59s0,0,0,.06h.9v0l.17-3.59a9.61,9.61,0,0,1,8.94-8.95l3.59-.17a10.52,10.52,0,0,0,9.8-9.79l.17-3.59a9.61,9.61,0,0,1,8.95-8.95L122,233a10.52,10.52,0,0,0,9.8-9.79l.17-3.59a9.61,9.61,0,0,1,8.94-8.95l3.59-.17a10.52,10.52,0,0,0,9.8-9.79l.17-3.6a9.61,9.61,0,0,1,8.94-8.95L167,188a10.52,10.52,0,0,0,9.79-9.79l.17-3.59a9.61,9.61,0,0,1,8.94-8.95l3.59-.17a10.52,10.52,0,0,0,9.8-9.79l.17-3.59a9.61,9.61,0,0,1,8.94-8.95l3.59-.17a10.52,10.52,0,0,0,9.8-9.79l.17-3.59a9.61,9.61,0,0,1,8.94-8.95l3.6-.17a10.52,10.52,0,0,0,9.79-9.8l.17-3.59a9.61,9.61,0,0,1,8.95-8.95l3.59-.17A10.32,10.32,0,0,0,264,94.67Z"/><path class="cls-2" d="M264,102.34a8.81,8.81,0,0,1-1.51.21l-3.6.17a10.53,10.53,0,0,0-9.79,9.8l-.17,3.59a9.61,9.61,0,0,1-8.94,8.95l-3.6.17a10.52,10.52,0,0,0-9.79,9.79l-.17,3.59a9.61,9.61,0,0,1-8.94,8.95l-3.59.17a10.52,10.52,0,0,0-9.79,9.79l-.17,3.59a9.61,9.61,0,0,1-8.94,8.95l-3.6.17a10.53,10.53,0,0,0-9.79,9.8l-.17,3.59a9.61,9.61,0,0,1-8.94,8.95l-3.6.17a10.53,10.53,0,0,0-9.79,9.8l-.17,3.59a9.61,9.61,0,0,1-8.94,8.95l-3.59.17a10.52,10.52,0,0,0-9.79,9.79l-.17,3.59a9.61,9.61,0,0,1-8.94,8.95l-3.59.17a10.52,10.52,0,0,0-9.79,9.79l-.17,3.59a9.61,9.61,0,0,1-8.94,8.95l-3.6.17a10.57,10.57,0,0,0-9.53,8h.92a9.65,9.65,0,0,1,8.64-7.08L105,261a10.52,10.52,0,0,0,9.79-9.79l.17-3.59a9.61,9.61,0,0,1,8.94-8.95l3.59-.17a10.52,10.52,0,0,0,9.79-9.79l.17-3.59a9.61,9.61,0,0,1,8.94-8.95L150,216a10.52,10.52,0,0,0,9.79-9.79l.17-3.59a9.61,9.61,0,0,1,8.94-8.95l3.6-.17a10.53,10.53,0,0,0,9.79-9.8l.17-3.59a9.61,9.61,0,0,1,8.94-8.95L195,171a10.52,10.52,0,0,0,9.79-9.79l.17-3.59a9.61,9.61,0,0,1,8.94-8.94l3.59-.17a10.52,10.52,0,0,0,9.79-9.79l.17-3.59a9.61,9.61,0,0,1,8.94-8.95L240,126a10.52,10.52,0,0,0,9.79-9.79l.17-3.59a9.61,9.61,0,0,1,8.94-8.95l3.6-.17a9.55,9.55,0,0,0,1.47-.2Z"/><path class="cls-2" d="M264,108.24A10.53,10.53,0,0,0,254.6,118l-.17,3.59a9.61,9.61,0,0,1-8.94,8.95l-3.6.17a10.52,10.52,0,0,0-9.79,9.79l-.17,3.59A9.61,9.61,0,0,1,223,153l-3.59.17a10.52,10.52,0,0,0-9.79,9.79l-.17,3.59a9.61,9.61,0,0,1-8.95,8.95l-3.59.17a10.52,10.52,0,0,0-9.8,9.79l-.17,3.59a9.61,9.61,0,0,1-8.94,8.95l-3.6.17a10.52,10.52,0,0,0-9.79,9.8l-.17,3.59a9.61,9.61,0,0,1-8.94,8.95l-3.59.17a10.52,10.52,0,0,0-9.79,9.79l-.17,3.59a9.61,9.61,0,0,1-8.95,8.95l-3.59.17a10.52,10.52,0,0,0-9.8,9.79l-.17,3.59a9.61,9.61,0,0,1-8.95,8.95l-3.59.17a10.2,10.2,0,0,0-6.12,2.49h1.47a9.18,9.18,0,0,1,4.7-1.6l3.59-.17a10.52,10.52,0,0,0,9.8-9.79l.17-3.59a9.61,9.61,0,0,1,8.95-8.95L133,244a10.52,10.52,0,0,0,9.8-9.79l.17-3.59a9.61,9.61,0,0,1,8.94-8.95l3.6-.17a10.52,10.52,0,0,0,9.79-9.79l.17-3.6a9.61,9.61,0,0,1,8.94-8.95L178,199a10.52,10.52,0,0,0,9.79-9.79l.17-3.6a9.61,9.61,0,0,1,8.95-8.95l3.59-.17a10.52,10.52,0,0,0,9.8-9.79l.17-3.59a9.61,9.61,0,0,1,8.94-8.95l3.59-.17a10.52,10.52,0,0,0,9.79-9.79l.17-3.59a9.61,9.61,0,0,1,8.94-8.95l3.6-.17a10.52,10.52,0,0,0,9.79-9.8l.17-3.59a9.62,9.62,0,0,1,8.53-8.91Z"/><path class="cls-2" d="M264,116a10.39,10.39,0,0,0-3.94,7.52l-.17,3.59A9.61,9.61,0,0,1,251,136l-3.6.17a10.52,10.52,0,0,0-9.79,9.79l-.17,3.59a9.61,9.61,0,0,1-8.94,8.95l-3.59.17a10.52,10.52,0,0,0-9.79,9.79l-.17,3.59a9.61,9.61,0,0,1-8.94,8.95l-3.6.17a10.53,10.53,0,0,0-9.79,9.8l-.17,3.6a9.61,9.61,0,0,1-8.94,8.95l-3.6.17a10.53,10.53,0,0,0-9.79,9.8l-.17,3.59a9.61,9.61,0,0,1-8.94,8.95l-3.59.17a10.52,10.52,0,0,0-9.79,9.79l-.17,3.59a9.61,9.61,0,0,1-8.94,8.95l-3.59.17a10.52,10.52,0,0,0-9.79,9.79l-.17,3.59a9.39,9.39,0,0,1-2.77,6.13h1.2a10.2,10.2,0,0,0,2.46-6.09l.17-3.59a9.61,9.61,0,0,1,8.94-8.95l3.59-.17a10.52,10.52,0,0,0,9.79-9.79l.17-3.59a9.61,9.61,0,0,1,8.94-8.95l3.59-.17a10.52,10.52,0,0,0,9.79-9.79l.17-3.59a9.61,9.61,0,0,1,8.95-8.95l3.6-.17a10.52,10.52,0,0,0,9.79-9.79l.17-3.59a9.61,9.61,0,0,1,8.94-8.95l3.6-.17a10.52,10.52,0,0,0,9.79-9.79l.17-3.59a9.61,9.61,0,0,1,8.94-8.94l3.59-.17a10.52,10.52,0,0,0,9.79-9.79l.17-3.59a9.61,9.61,0,0,1,8.94-8.95l3.6-.17a10.52,10.52,0,0,0,9.79-9.79l.17-3.59a9.42,9.42,0,0,1,3-6.39Z"/><path class="cls-2" d="M264,136.88a9.58,9.58,0,0,1-7.58,4.62l-3.6.17a10.53,10.53,0,0,0-9.79,9.8l-.17,3.59a9.61,9.61,0,0,1-8.94,8.95l-3.59.17a10.52,10.52,0,0,0-9.79,9.79l-.17,3.59a9.61,9.61,0,0,1-8.95,8.95l-3.59.17a10.52,10.52,0,0,0-9.8,9.79l-.17,3.59a9.61,9.61,0,0,1-8.94,8.95l-3.6.17a10.53,10.53,0,0,0-9.79,9.8l-.17,3.6a9.61,9.61,0,0,1-8.94,8.95l-3.59.17a10.52,10.52,0,0,0-9.8,9.79l-.17,3.59A9.61,9.61,0,0,1,143.9,254l-3.59.17a10.52,10.52,0,0,0-9.8,9.79l-.17,3.59c0,.22,0,.43-.06.65h.9c0-.2,0-.4.06-.61l.17-3.59a9.61,9.61,0,0,1,8.95-8.95l3.59-.17a10.52,10.52,0,0,0,9.79-9.79l.17-3.59a9.61,9.61,0,0,1,8.95-8.95l3.59-.17a10.52,10.52,0,0,0,9.79-9.79l.17-3.59a9.61,9.61,0,0,1,8.94-8.95l3.6-.17a10.53,10.53,0,0,0,9.79-9.8l.17-3.59a9.61,9.61,0,0,1,8.95-8.95l3.59-.17a10.52,10.52,0,0,0,9.8-9.79l.17-3.59a9.61,9.61,0,0,1,8.94-8.95l3.59-.17a10.52,10.52,0,0,0,9.79-9.79l.17-3.59a9.61,9.61,0,0,1,8.94-8.95l3.6-.17a10.4,10.4,0,0,0,7.54-4Z"/><path class="cls-2" d="M264,146.61a8.86,8.86,0,0,1-2.1.37l-3.6.17a10.53,10.53,0,0,0-9.79,9.8l-.17,3.59a9.61,9.61,0,0,1-8.94,8.95l-3.59.17a10.52,10.52,0,0,0-9.79,9.79l-.17,3.59A9.61,9.61,0,0,1,216.9,192l-3.6.17a10.52,10.52,0,0,0-9.79,9.79l-.17,3.6a9.61,9.61,0,0,1-8.94,8.95l-3.6.17a10.52,10.52,0,0,0-9.79,9.79l-.17,3.6a9.61,9.61,0,0,1-8.95,8.95l-3.59.17a10.52,10.52,0,0,0-9.79,9.79l-.17,3.59a9.61,9.61,0,0,1-8.95,8.95l-3.59.17a10.55,10.55,0,0,0-9.64,8.56H137a9.64,9.64,0,0,1,8.78-7.67l3.59-.17a10.52,10.52,0,0,0,9.8-9.79l.17-3.59a9.61,9.61,0,0,1,8.94-8.95l3.59-.17a10.52,10.52,0,0,0,9.8-9.79l.17-3.6a9.61,9.61,0,0,1,8.94-8.95l3.6-.17a10.52,10.52,0,0,0,9.79-9.79l.17-3.6a9.61,9.61,0,0,1,8.94-8.95l3.6-.17a10.52,10.52,0,0,0,9.79-9.79l.17-3.59a9.61,9.61,0,0,1,8.94-8.95l3.59-.17a10.52,10.52,0,0,0,9.79-9.79l.17-3.59a9.61,9.61,0,0,1,8.94-8.95l3.6-.17a9.68,9.68,0,0,0,2.06-.33Z"/><path class="cls-2" d="M264,152.62h-.22a10.52,10.52,0,0,0-9.79,9.79l-.17,3.59a9.61,9.61,0,0,1-8.94,8.95l-3.59.17a10.52,10.52,0,0,0-9.79,9.79l-.17,3.59a9.61,9.61,0,0,1-8.95,8.95l-3.59.17a10.52,10.52,0,0,0-9.8,9.79l-.17,3.6a9.61,9.61,0,0,1-8.94,8.95l-3.6.17a10.53,10.53,0,0,0-9.79,9.79l-.17,3.6a9.61,9.61,0,0,1-8.94,8.95l-3.59.17a10.52,10.52,0,0,0-9.8,9.79l-.17,3.59a9.61,9.61,0,0,1-8.94,8.95l-3.59.17a10.29,10.29,0,0,0-6.76,3.08h1.31a9.3,9.3,0,0,1,5.48-2.19l3.59-.17a10.52,10.52,0,0,0,9.79-9.79l.17-3.59a9.61,9.61,0,0,1,8.95-8.95l3.59-.17a10.52,10.52,0,0,0,9.79-9.79l.17-3.6a9.61,9.61,0,0,1,8.94-8.95l3.6-.17a10.53,10.53,0,0,0,9.79-9.79l.17-3.59a9.61,9.61,0,0,1,8.95-8.95l3.59-.17a10.52,10.52,0,0,0,9.79-9.79l.17-3.59a9.61,9.61,0,0,1,8.94-8.94l3.59-.17a10.52,10.52,0,0,0,9.79-9.79l.17-3.59a9.61,9.61,0,0,1,8.94-8.95H264Z"/><path class="cls-2" d="M264,159.94a10.45,10.45,0,0,0-4.53,8l-.17,3.59a9.61,9.61,0,0,1-8.94,8.95l-3.59.17a10.52,10.52,0,0,0-9.79,9.79l-.17,3.59a9.61,9.61,0,0,1-8.94,8.95l-3.6.17a10.52,10.52,0,0,0-9.79,9.79l-.17,3.59a9.61,9.61,0,0,1-8.94,8.95l-3.6.17a10.52,10.52,0,0,0-9.79,9.79l-.17,3.59a9.61,9.61,0,0,1-8.95,8.95l-3.59.17a10.52,10.52,0,0,0-9.79,9.79l-.17,3.59a9.47,9.47,0,0,1-3.41,6.72h1.3a10.28,10.28,0,0,0,3-6.67l.17-3.59a9.61,9.61,0,0,1,8.95-8.95l3.59-.17a10.52,10.52,0,0,0,9.8-9.79l.17-3.59a9.61,9.61,0,0,1,8.94-8.95l3.6-.17a10.52,10.52,0,0,0,9.79-9.8l.17-3.59a9.61,9.61,0,0,1,8.94-8.95l3.6-.17a10.53,10.53,0,0,0,9.79-9.79l.17-3.59a9.61,9.61,0,0,1,8.94-8.95l3.59-.17a10.52,10.52,0,0,0,9.79-9.79l.17-3.59a9.5,9.5,0,0,1,3.64-6.9Z"/><path class="cls-2" d="M264,180.2a9.63,9.63,0,0,1-8.17,5.73l-3.59.17a10.52,10.52,0,0,0-9.79,9.79l-.17,3.59a9.61,9.61,0,0,1-8.94,8.95l-3.6.17a10.52,10.52,0,0,0-9.8,9.79l-.17,3.59a9.61,9.61,0,0,1-8.94,8.95l-3.6.17a10.53,10.53,0,0,0-9.79,9.8l-.17,3.59a9.61,9.61,0,0,1-8.94,8.95l-3.59.17a10.52,10.52,0,0,0-9.79,9.79l-.17,3.59a8.7,8.7,0,0,1-.16,1.24h.91a9.49,9.49,0,0,0,.14-1.19l.17-3.59a9.61,9.61,0,0,1,8.94-8.95l3.59-.17a10.52,10.52,0,0,0,9.79-9.79l.17-3.59a9.61,9.61,0,0,1,8.94-8.95l3.6-.17a10.53,10.53,0,0,0,9.79-9.8l.17-3.59a9.61,9.61,0,0,1,8.95-8.95l3.59-.17a10.52,10.52,0,0,0,9.79-9.79l.17-3.59A9.61,9.61,0,0,1,252.3,187l3.59-.17A10.47,10.47,0,0,0,264,182Z"/><path class="cls-2" d="M264,190.85a9,9,0,0,1-2.69.56l-3.59.17a10.52,10.52,0,0,0-9.79,9.79l-.17,3.59a9.61,9.61,0,0,1-8.94,8.95l-3.6.17a10.52,10.52,0,0,0-9.79,9.79l-.17,3.6a9.61,9.61,0,0,1-8.94,8.95l-3.6.17a10.52,10.52,0,0,0-9.79,9.79l-.17,3.6a9.61,9.61,0,0,1-8.94,8.95l-3.6.17a10.54,10.54,0,0,0-9.73,9.15h.9a9.63,9.63,0,0,1,8.88-8.25l3.6-.17a10.52,10.52,0,0,0,9.79-9.79l.17-3.6a9.61,9.61,0,0,1,8.94-8.95l3.6-.17a10.52,10.52,0,0,0,9.79-9.8l.17-3.59a9.61,9.61,0,0,1,8.94-8.95l3.6-.17a10.53,10.53,0,0,0,9.79-9.79l.17-3.59a9.61,9.61,0,0,1,8.94-8.95l3.59-.17a9.77,9.77,0,0,0,2.65-.51Z"/><path class="cls-2" d="M264,197l-.8,0a10.52,10.52,0,0,0-9.79,9.79l-.17,3.59a9.61,9.61,0,0,1-8.94,8.95l-3.59.17a10.52,10.52,0,0,0-9.8,9.79l-.17,3.59a9.61,9.61,0,0,1-8.94,8.95l-3.6.17a10.52,10.52,0,0,0-9.8,9.79l-.17,3.59a9.61,9.61,0,0,1-8.94,8.95l-3.59.17a10.37,10.37,0,0,0-7.29,3.67h1.21a9.4,9.4,0,0,1,6.13-2.77l3.59-.17a10.52,10.52,0,0,0,9.79-9.8l.17-3.59a9.61,9.61,0,0,1,8.95-8.95l3.6-.17a10.52,10.52,0,0,0,9.79-9.79l.17-3.6a9.61,9.61,0,0,1,8.95-8.95l3.6-.17a10.52,10.52,0,0,0,9.79-9.79l.17-3.59a9.61,9.61,0,0,1,8.94-8.95l.76,0Z"/><path class="cls-2" d="M264,204a10.49,10.49,0,0,0-5.12,8.34l-.17,3.59a9.61,9.61,0,0,1-8.94,8.95l-3.6.17a10.53,10.53,0,0,0-9.79,9.79l-.17,3.59a9.61,9.61,0,0,1-8.94,8.95l-3.6.17a10.53,10.53,0,0,0-9.79,9.79l-.17,3.6a9.55,9.55,0,0,1-4.18,7.31H211A10.36,10.36,0,0,0,214.6,261l.17-3.6a9.61,9.61,0,0,1,8.94-8.95l3.6-.17a10.53,10.53,0,0,0,9.79-9.8l.17-3.6a9.61,9.61,0,0,1,8.94-8.95l3.6-.17a10.52,10.52,0,0,0,9.79-9.79l.17-3.59A9.55,9.55,0,0,1,264,205Z"/><path class="cls-2" d="M264,222.8a9.64,9.64,0,0,1-8.76,7.56l-3.59.17a10.52,10.52,0,0,0-9.79,9.79l-.17,3.6a9.61,9.61,0,0,1-8.94,8.95l-3.6.17a10.52,10.52,0,0,0-9.79,9.8l-.17,3.59a8.85,8.85,0,0,1-.29,1.83h.92a9.69,9.69,0,0,0,.26-1.78l.17-3.59a9.61,9.61,0,0,1,8.94-8.95l3.6-.17a10.52,10.52,0,0,0,9.79-9.79l.17-3.59a9.61,9.61,0,0,1,8.94-8.95l3.6-.17a10.53,10.53,0,0,0,8.71-5.79Z"/><path class="cls-2" d="M264,235a9,9,0,0,1-3.28.8l-3.6.17a10.53,10.53,0,0,0-9.79,9.8l-.17,3.59a9.61,9.61,0,0,1-8.94,8.95l-3.6.17a10.53,10.53,0,0,0-9.79,9.74h.9a9.61,9.61,0,0,1,8.93-8.84l3.6-.17a10.53,10.53,0,0,0,9.79-9.8l.17-3.59a9.61,9.61,0,0,1,8.94-8.95l3.6-.17A9.8,9.8,0,0,0,264,236Z"/><path class="cls-2" d="M264,241.42l-1.39.07a10.52,10.52,0,0,0-9.79,9.79l-.17,3.6a9.61,9.61,0,0,1-8.94,8.95l-3.6.17a10.43,10.43,0,0,0-7.76,4.26h1.13a9.47,9.47,0,0,1,6.67-3.36l3.6-.17a10.52,10.52,0,0,0,9.79-9.79l.17-3.6a9.61,9.61,0,0,1,8.94-8.95l1.35-.07Z"/><path class="cls-2" d="M264,248.1a10.52,10.52,0,0,0-5.71,8.67l-.17,3.6a9.61,9.61,0,0,1-5.17,7.89h1.69A10.44,10.44,0,0,0,259,260.4l.17-3.59A9.6,9.6,0,0,1,264,249.1Z"/><path class="cls-2" d="M264,260.63a9.59,9.59,0,0,0-.23,1.62l-.17,3.6a8.91,8.91,0,0,1-.46,2.42H264Z"/></g></g></svg>