<svg xmlns="http://www.w3.org/2000/svg" viewBox="0 0 103.87 31.89"><defs><style>.cls-1{fill:#192a46;}.cls-2{fill:#fff;}</style></defs><title>logo_2</title><g id="Layer_2" data-name="Layer 2"><g id="Your_Design" data-name="Your Design"><path class="cls-1" d="M16.36,14.49a13.93,13.93,0,0,0-4.74-1.08v-.06a10.63,10.63,0,0,0,3.64-1.3A6.29,6.29,0,0,0,17.43,10a4.55,4.55,0,0,0,.7-2.37,4.22,4.22,0,0,0-.91-2.69,5.85,5.85,0,0,0-2.72-1.8,13.3,13.3,0,0,0-4.44-.65l-2.22,0L5,2.55q-3.31,0-5-.1v.65a5,5,0,0,1,1.58.25,1.18,1.18,0,0,1,.68.76,6.25,6.25,0,0,1,.18,1.78V22.1a6.25,6.25,0,0,1-.18,1.78,1.18,1.18,0,0,1-.68.76A5,5,0,0,1,0,24.91v.65q1.66-.1,5-.1,1.72,0,3.42,0l2.4,0a14.29,14.29,0,0,0,4.81-.73,6.55,6.55,0,0,0,3.11-2.15,5.54,5.54,0,0,0,1.08-3.45A4.71,4.71,0,0,0,19,16.58,6.23,6.23,0,0,0,16.36,14.49ZM7.63,5.91a7.55,7.55,0,0,1,.15-1.76,1.22,1.22,0,0,1,.57-.81,2.81,2.81,0,0,1,1.3-.23,2.68,2.68,0,0,1,2.44,1.2A6.94,6.94,0,0,1,12.86,8,7.61,7.61,0,0,1,12,11.84a3.16,3.16,0,0,1-3,1.45H7.63Zm2.25,18.9a3.76,3.76,0,0,1-1.45-.21,1.14,1.14,0,0,1-.63-.76,6.56,6.56,0,0,1-.17-1.74V13.85H9a5.53,5.53,0,0,1,4.12,1.34,5.39,5.39,0,0,1,1.3,3.9Q14.42,24.81,9.88,24.81Z"/><path class="cls-1" d="M25.34,4.61a2.65,2.65,0,0,1,2.16-1,3.21,3.21,0,0,1,1.77.57,3.23,3.23,0,0,1,1,.94,4,4,0,0,1,.52,1.23A11.35,11.35,0,0,1,31,8.08h.44q0-3.41.07-4.76H31.1Q31,4.46,30.62,4.46a.64.64,0,0,1-.37-.17,6.71,6.71,0,0,0-1.57-.91,5.16,5.16,0,0,0-1.94-.33A7.65,7.65,0,0,0,23,3.95a6.4,6.4,0,0,0-2.55,2.51,7.41,7.41,0,0,0-.92,3.72,7.32,7.32,0,0,0,.89,3.7A5.89,5.89,0,0,0,23,16.25a8.25,8.25,0,0,0,3.77.82,5.42,5.42,0,0,0,1.38-.16,5.06,5.06,0,0,0,1.09-.42,10.08,10.08,0,0,0,1-.65.79.79,0,0,1,.39-.16q.2,0,.31.26a3.16,3.16,0,0,1,.15.86h.44q-.07-1.4-.07-4.94H31a13.57,13.57,0,0,1-.27,1.88A4.17,4.17,0,0,1,30.24,15a3,3,0,0,1-1,.94,3.21,3.21,0,0,1-1.77.57,2.65,2.65,0,0,1-2.16-1,5.54,5.54,0,0,1-1.11-2.4,14.58,14.58,0,0,1-.31-3.08A14.58,14.58,0,0,1,24.24,7,5.54,5.54,0,0,1,25.34,4.61Z"/><path class="cls-1" d="M56.5,24.29a1.37,1.37,0,0,1-.67.19,1.1,1.1,0,0,1-1-.51,5.56,5.56,0,0,1-.61-1.83l-.75-3.36a5.21,5.21,0,0,0-1-2.25,4.67,4.67,0,0,0-2-1.38,12,12,0,0,0-3.24-.67h0a11.16,11.16,0,0,0,4.33-1.28,5.88,5.88,0,0,0,2.33-2.27,5.86,5.86,0,0,0,.69-2.76A4.72,4.72,0,0,0,52.31,4Q50,2.49,45.53,2.49l-2.21,0-2.9,0q-3.3,0-5-.1v.65A5,5,0,0,1,37,3.36a1.18,1.18,0,0,1,.68.76,6.25,6.25,0,0,1,.18,1.78V22.1a6.25,6.25,0,0,1-.18,1.78,1.18,1.18,0,0,1-.68.76,5,5,0,0,1-1.58.25v.65q1.66-.1,5.15-.1,3.19,0,4.92.1v-.65a5,5,0,0,1-1.59-.25,1.15,1.15,0,0,1-.67-.76,6.51,6.51,0,0,1-.18-1.78V14.6h2.12a2.11,2.11,0,0,1,1.54.57,3.65,3.65,0,0,1,.89,1.53,20.57,20.57,0,0,1,.6,2.54l.59,3.25a4.07,4.07,0,0,0,1.43,2.74,5,5,0,0,0,3,.8,6,6,0,0,0,2.43-.45,5.6,5.6,0,0,0,1.9-1.45l-.45-.4A3.13,3.13,0,0,1,56.5,24.29Zm-12-10.34h-1.4v-8a7.54,7.54,0,0,1,.15-1.76,1.22,1.22,0,0,1,.57-.81,2.81,2.81,0,0,1,1.3-.23,3.5,3.5,0,0,1,3.1,1.37,7.12,7.12,0,0,1,.95,4,9.08,9.08,0,0,1-.39,2.84,3.58,3.58,0,0,1-1.42,1.88A5,5,0,0,1,44.5,13.94Z"/><path class="cls-1" d="M70.64,15.47q0-7.23-6.14-7.23a8.3,8.3,0,0,0-4.16,1,7,7,0,0,0-2.82,3.05,11.06,11.06,0,0,0-1,5,11.06,11.06,0,0,0,.95,4.85,6.46,6.46,0,0,0,2.65,2.91A7.9,7.9,0,0,0,64,26a6.24,6.24,0,0,0,3-.73,6.75,6.75,0,0,0,2.2-1.88,8.13,8.13,0,0,0,1.28-2.49L70,20.73a4.91,4.91,0,0,1-4.32,2.61,3.58,3.58,0,0,1-2.06-.66A4.64,4.64,0,0,1,62,20.6,9.24,9.24,0,0,1,61.43,17q0-1.05,0-1.53Zm-9.23-.62a11.31,11.31,0,0,1,.95-4.49A2.25,2.25,0,0,1,64.3,8.92q1.15,0,1.71,1.69a12.77,12.77,0,0,1,.52,4.24Z"/><path class="cls-1" d="M85.46,15.47q0-7.23-6.14-7.23a8.29,8.29,0,0,0-4.16,1,7,7,0,0,0-2.82,3.05,11.06,11.06,0,0,0-1,5,11.06,11.06,0,0,0,.95,4.85,6.46,6.46,0,0,0,2.65,2.91,7.9,7.9,0,0,0,3.94,1,6.24,6.24,0,0,0,3-.73,6.75,6.75,0,0,0,2.2-1.88,8.13,8.13,0,0,0,1.28-2.49l-.57-.19a4.91,4.91,0,0,1-4.32,2.61,3.58,3.58,0,0,1-2.06-.66,4.63,4.63,0,0,1-1.57-2.09A9.24,9.24,0,0,1,76.24,17q0-1.05,0-1.53Zm-9.23-.62a11.31,11.31,0,0,1,.95-4.49,2.25,2.25,0,0,1,1.94-1.44q1.15,0,1.71,1.69a12.77,12.77,0,0,1,.52,4.24Z"/><path class="cls-1" d="M102.24,24.17a4,4,0,0,1-.45-2.19V0A20.56,20.56,0,0,1,97,.46q-1,0-2-.1v.69a1.83,1.83,0,0,1,1.62.68,3.94,3.94,0,0,1,.47,2.19V9.47a4.87,4.87,0,0,0-3.62-1.23,7.22,7.22,0,0,0-3.78,1,6.64,6.64,0,0,0-2.58,3A11.16,11.16,0,0,0,86.18,17a13,13,0,0,0,.82,5,6.24,6.24,0,0,0,2.34,3,6.35,6.35,0,0,0,3.5,1,4.17,4.17,0,0,0,4.24-2.95v2.8a21.14,21.14,0,0,1,4.76-.45q1,0,2,.1v-.69A1.82,1.82,0,0,1,102.24,24.17Zm-5.16-2.45a3.68,3.68,0,0,1-.53,1.54,3,3,0,0,1-1,1,2.65,2.65,0,0,1-1.32.35q-3.12,0-3.08-7.51A14.36,14.36,0,0,1,92,11.17a2.92,2.92,0,0,1,2.66-2,2.8,2.8,0,0,1,2.39,1.12Z"/><circle class="cls-1" cx="26.44" cy="23.13" r="1.63"/><path class="cls-2" d="M103.87,30.51a4.31,4.31,0,0,1-1-.36l-1.11-.58a7.37,7.37,0,0,0-6.23,0l-1.11.58a5.84,5.84,0,0,1-4.79,0l-1.11-.58a7.37,7.37,0,0,0-6.23,0l-1.11.58a5.84,5.84,0,0,1-4.79,0l-1.11-.58a7.37,7.37,0,0,0-6.23,0l-1.11.58a5.84,5.84,0,0,1-4.79,0L62,29.57a7.37,7.37,0,0,0-6.23,0l-1.11.58a5.84,5.84,0,0,1-4.79,0l-1.11-.58a7.37,7.37,0,0,0-6.23,0l-1.11.58a5.84,5.84,0,0,1-4.79,0l-1.11-.58a7.37,7.37,0,0,0-6.23,0l-1.11.58a5.84,5.84,0,0,1-4.79,0l-1.11-.58a7.37,7.37,0,0,0-6.23,0L15,30.15a5.84,5.84,0,0,1-4.79,0l-1.11-.58a7.37,7.37,0,0,0-6.23,0l-1.11.58A4.83,4.83,0,0,1,0,30.63v1.22a6.47,6.47,0,0,0,2.46-.66l1.11-.58a5.85,5.85,0,0,1,4.79,0l1.11.58a7.37,7.37,0,0,0,6.23,0l1.11-.58a5.85,5.85,0,0,1,4.79,0l1.11.58a7.36,7.36,0,0,0,6.23,0L30,30.61a5.85,5.85,0,0,1,4.79,0l1.11.58a7.37,7.37,0,0,0,6.23,0l1.11-.58a5.84,5.84,0,0,1,4.79,0l1.11.58a7.37,7.37,0,0,0,6.23,0l1.11-.58a5.84,5.84,0,0,1,4.79,0l1.11.58a7.37,7.37,0,0,0,6.23,0l1.11-.58a5.85,5.85,0,0,1,4.79,0l1.11.58a7.36,7.36,0,0,0,6.23,0L83,30.61a5.84,5.84,0,0,1,4.79,0l1.11.58a7.37,7.37,0,0,0,6.23,0l1.11-.58a5.85,5.85,0,0,1,4.79,0l1.11.58a6,6,0,0,0,1.77.57Z"/></g></g></svg>