<svg xmlns="http://www.w3.org/2000/svg" viewBox="0 0 108.17 79.48"><defs><style>.cls-1,.cls-12{fill:#fff;}.cls-1{opacity:0.6;}.cls-10,.cls-2{font-size:8.77px;}.cls-10,.cls-2,.cls-9{fill:#192a46;}.cls-2{font-family:ProximaNova-BlackIt, Proxima Nova;font-style:italic;}.cls-3{letter-spacing:-0.04em;}.cls-4{letter-spacing:0em;}.cls-5{letter-spacing:-0.01em;}.cls-6{letter-spacing:0em;}.cls-7{letter-spacing:-0.05em;}.cls-8{letter-spacing:-0.02em;}.cls-10{font-family:ProximaNova-Black, Proxima Nova;}.cls-11{letter-spacing:-0.02em;}</style></defs><title>logo-02</title><g id="Layer_2" data-name="Layer 2"><g id="Your_Design" data-name="Your Design"><rect class="cls-1" y="3.37" width="108.17" height="18"/><text class="cls-2" transform="translate(6.36 7.31)">PHILADELPHI<tspan class="cls-3" x="57.54" y="0">A</tspan><tspan class="cls-4" x="63.42" y="0">-B</tspan><tspan class="cls-5" x="72.17" y="0">A</tspan><tspan class="cls-6" x="78.3" y="0">SED</tspan><tspan x="-4.18" y="7.8">FRON</tspan><tspan class="cls-7" x="20.26" y="7.8">T</tspan><tspan x="25.04" y="7.8">-END DEVE</tspan><tspan class="cls-8" x="71.31" y="7.8">L</tspan><tspan class="cls-6" x="75.84" y="7.8">OPER</tspan><tspan x="1.35" y="15.59">AND UI/UX DESIGNER</tspan></text><path class="cls-9" d="M17.81,41.14a13.93,13.93,0,0,0-4.74-1.08V40a10.63,10.63,0,0,0,3.64-1.3,6.29,6.29,0,0,0,2.18-2.06,4.55,4.55,0,0,0,.7-2.37,4.22,4.22,0,0,0-.91-2.69A5.85,5.85,0,0,0,16,29.77a13.3,13.3,0,0,0-4.44-.65l-2.22,0-2.9,0q-3.31,0-5-.1v.65A5,5,0,0,1,3,30a1.18,1.18,0,0,1,.68.76,6.25,6.25,0,0,1,.18,1.78V48.75a6.25,6.25,0,0,1-.18,1.78,1.18,1.18,0,0,1-.68.76,5,5,0,0,1-1.58.25v.65q1.66-.1,5-.1,1.72,0,3.42,0l2.4,0a14.29,14.29,0,0,0,4.81-.73,6.55,6.55,0,0,0,3.11-2.15,5.54,5.54,0,0,0,1.08-3.45,4.71,4.71,0,0,0-.82-2.65A6.23,6.23,0,0,0,17.81,41.14ZM9.08,32.55a7.55,7.55,0,0,1,.15-1.76A1.22,1.22,0,0,1,9.81,30a2.81,2.81,0,0,1,1.3-.23A2.68,2.68,0,0,1,13.54,31a6.94,6.94,0,0,1,.76,3.66,7.61,7.61,0,0,1-.85,3.87,3.16,3.16,0,0,1-3,1.45H9.08Zm2.25,18.9a3.76,3.76,0,0,1-1.45-.21,1.14,1.14,0,0,1-.63-.76,6.56,6.56,0,0,1-.17-1.74V40.49h1.37a5.53,5.53,0,0,1,4.12,1.34,5.39,5.39,0,0,1,1.3,3.9Q15.87,51.45,11.33,51.45Z"/><path class="cls-9" d="M26.79,31.26a2.65,2.65,0,0,1,2.16-1,3.5,3.5,0,0,1,2.73,1.51A4,4,0,0,1,32.21,33a11.35,11.35,0,0,1,.27,1.7h.44q0-3.41.07-4.76h-.44q-.09,1.13-.48,1.13a.64.64,0,0,1-.37-.17A6.71,6.71,0,0,0,30.13,30a5.16,5.16,0,0,0-1.94-.33,7.65,7.65,0,0,0-3.73.89,6.4,6.4,0,0,0-2.55,2.51A7.41,7.41,0,0,0,21,36.82a7.32,7.32,0,0,0,.89,3.7,5.89,5.89,0,0,0,2.51,2.37,8.25,8.25,0,0,0,3.77.82,5.42,5.42,0,0,0,1.38-.16,5.06,5.06,0,0,0,1.09-.42,10.08,10.08,0,0,0,1-.66.79.79,0,0,1,.39-.16q.2,0,.31.26a3.16,3.16,0,0,1,.15.86H33q-.07-1.4-.07-4.94h-.44a13.57,13.57,0,0,1-.27,1.88,4.17,4.17,0,0,1-.52,1.31,3,3,0,0,1-1,.94,3.21,3.21,0,0,1-1.77.57,2.65,2.65,0,0,1-2.16-1,5.54,5.54,0,0,1-1.11-2.4,15.43,15.43,0,0,1,0-6.17A5.54,5.54,0,0,1,26.79,31.26Z"/><path class="cls-9" d="M57.95,50.93a1.37,1.37,0,0,1-.67.19,1.1,1.1,0,0,1-1-.51,5.56,5.56,0,0,1-.61-1.83L55,45.41a5.21,5.21,0,0,0-1-2.25,4.67,4.67,0,0,0-2-1.38,12,12,0,0,0-3.24-.67h0A11.16,11.16,0,0,0,53,39.83a5.57,5.57,0,0,0,3-5,4.72,4.72,0,0,0-2.28-4.2Q51.48,29.13,47,29.13l-2.21,0-2.9,0q-3.3,0-5-.1v.65a5,5,0,0,1,1.58.25,1.18,1.18,0,0,1,.68.76,6.25,6.25,0,0,1,.18,1.78V48.75a6.25,6.25,0,0,1-.18,1.78,1.18,1.18,0,0,1-.68.76,5,5,0,0,1-1.58.25v.65q1.66-.1,5.15-.1,3.19,0,4.92.1v-.65a5,5,0,0,1-1.59-.25,1.15,1.15,0,0,1-.67-.76,6.51,6.51,0,0,1-.18-1.78V41.24h2.12a2.11,2.11,0,0,1,1.54.57,3.65,3.65,0,0,1,.89,1.53,20.57,20.57,0,0,1,.6,2.54l.59,3.25a4.07,4.07,0,0,0,1.43,2.74,5,5,0,0,0,3,.8,6,6,0,0,0,2.43-.45A5.6,5.6,0,0,0,59,50.77l-.45-.4A3.13,3.13,0,0,1,57.95,50.93Zm-12-10.34h-1.4v-8a7.54,7.54,0,0,1,.15-1.76,1.22,1.22,0,0,1,.57-.81,2.81,2.81,0,0,1,1.3-.23,3.5,3.5,0,0,1,3.1,1.37,7.12,7.12,0,0,1,.95,4A9.08,9.08,0,0,1,50.23,38a3.58,3.58,0,0,1-1.42,1.88A5,5,0,0,1,45.95,40.59Z"/><path class="cls-9" d="M72.09,42.12q0-7.23-6.14-7.23a8.3,8.3,0,0,0-4.16,1A7,7,0,0,0,59,39a11.06,11.06,0,0,0-1,5,11.06,11.06,0,0,0,.95,4.85,6.46,6.46,0,0,0,2.65,2.91,7.9,7.9,0,0,0,3.94,1,6.24,6.24,0,0,0,3-.73,6.75,6.75,0,0,0,2.2-1.88A8.13,8.13,0,0,0,72,47.57l-.57-.19A4.91,4.91,0,0,1,67.12,50a3.58,3.58,0,0,1-2.06-.66,4.64,4.64,0,0,1-1.57-2.09,9.24,9.24,0,0,1-.61-3.59q0-1.05,0-1.53Zm-9.23-.62A11.31,11.31,0,0,1,63.81,37a2.25,2.25,0,0,1,1.94-1.44q1.15,0,1.71,1.69A12.77,12.77,0,0,1,68,41.49Z"/><path class="cls-9" d="M86.91,42.12q0-7.23-6.14-7.23a8.29,8.29,0,0,0-4.16,1A7,7,0,0,0,73.79,39a11.06,11.06,0,0,0-1,5,11.06,11.06,0,0,0,.95,4.85,6.46,6.46,0,0,0,2.65,2.91,7.9,7.9,0,0,0,3.94,1,6.24,6.24,0,0,0,3-.73,6.75,6.75,0,0,0,2.2-1.88,8.13,8.13,0,0,0,1.28-2.49l-.57-.19A4.91,4.91,0,0,1,81.93,50a3.58,3.58,0,0,1-2.06-.66,4.63,4.63,0,0,1-1.57-2.09,9.24,9.24,0,0,1-.61-3.59q0-1.05,0-1.53Zm-9.23-.62A11.31,11.31,0,0,1,78.63,37a2.25,2.25,0,0,1,1.94-1.44q1.15,0,1.71,1.69a12.77,12.77,0,0,1,.52,4.24Z"/><path class="cls-9" d="M103.69,50.81a4,4,0,0,1-.45-2.19v-22a20.56,20.56,0,0,1-4.76.46q-1,0-2-.1v.69a1.83,1.83,0,0,1,1.62.68,3.94,3.94,0,0,1,.47,2.19v5.55a4.87,4.87,0,0,0-3.62-1.23,7.22,7.22,0,0,0-3.78,1,6.64,6.64,0,0,0-2.58,3,11.16,11.16,0,0,0-.92,4.84,13,13,0,0,0,.82,5,6.24,6.24,0,0,0,2.34,3,6.35,6.35,0,0,0,3.5,1,4.17,4.17,0,0,0,4.24-2.95v2.8a21.14,21.14,0,0,1,4.76-.45q1,0,2,.1v-.69A1.82,1.82,0,0,1,103.69,50.81Zm-5.16-2.45A3.68,3.68,0,0,1,98,49.9a3,3,0,0,1-1,1,2.65,2.65,0,0,1-1.32.35q-3.12,0-3.08-7.51a14.36,14.36,0,0,1,.92-5.94,2.92,2.92,0,0,1,2.66-2,2.8,2.8,0,0,1,2.39,1.12Z"/><circle class="cls-9" cx="27.89" cy="49.77" r="1.63"/><rect class="cls-1" y="63.26" width="108.17" height="12"/><text class="cls-10" transform="translate(9.1 68.2)">BRIDGE<tspan class="cls-8" x="32.83" y="0">T</tspan><tspan x="37.88" y="0">CREE</tspan><tspan class="cls-8" x="60.39" y="0">D</tspan><tspan x="66.67" y="0">.COM</tspan><tspan x="8.08" y="7.8">@BRIDGE</tspan><tspan class="cls-11" x="47.79" y="7.8">T</tspan><tspan class="cls-4" x="52.83" y="7.8">CREED</tspan></text><path class="cls-12" d="M105.32,57.15a4.31,4.31,0,0,1-1-.36l-1.11-.58a7.37,7.37,0,0,0-6.23,0l-1.11.58a5.84,5.84,0,0,1-4.79,0l-1.11-.58a7.37,7.37,0,0,0-6.23,0l-1.11.58a5.84,5.84,0,0,1-4.79,0l-1.11-.58a7.37,7.37,0,0,0-6.23,0l-1.11.58a5.84,5.84,0,0,1-4.79,0l-1.11-.58a7.37,7.37,0,0,0-6.23,0l-1.11.58a5.84,5.84,0,0,1-4.79,0l-1.11-.58a7.37,7.37,0,0,0-6.23,0l-1.11.58a5.84,5.84,0,0,1-4.79,0L37,56.21a7.37,7.37,0,0,0-6.23,0l-1.11.58a5.84,5.84,0,0,1-4.79,0l-1.11-.58a7.37,7.37,0,0,0-6.23,0l-1.11.58a5.84,5.84,0,0,1-4.79,0l-1.11-.58a7.37,7.37,0,0,0-6.23,0l-1.11.58a4.83,4.83,0,0,1-1.74.48V58.5a6.47,6.47,0,0,0,2.46-.66L5,57.26a5.85,5.85,0,0,1,4.79,0l1.11.58a7.37,7.37,0,0,0,6.23,0l1.11-.58a5.85,5.85,0,0,1,4.79,0l1.11.58a7.36,7.36,0,0,0,6.23,0l1.11-.58a5.85,5.85,0,0,1,4.79,0l1.11.58a7.37,7.37,0,0,0,6.23,0l1.11-.58a5.84,5.84,0,0,1,4.79,0l1.11.58a7.37,7.37,0,0,0,6.23,0L58,57.26a5.84,5.84,0,0,1,4.79,0l1.11.58a7.37,7.37,0,0,0,6.23,0l1.11-.58a5.85,5.85,0,0,1,4.79,0l1.11.58a7.36,7.36,0,0,0,6.23,0l1.11-.58a5.84,5.84,0,0,1,4.79,0l1.11.58a7.37,7.37,0,0,0,6.23,0l1.11-.58a5.85,5.85,0,0,1,4.79,0l1.11.58a6,6,0,0,0,1.77.57Z"/></g></g></svg>